<?xml version="1.0" encoding="UTF-8"?>
<svg version="1.1" xmlns="http://www.w3.org/2000/svg" width="512" height="514">
<path d="M0 0 C3.09739755 5.52144781 0.17579644 12.84836558 -1.40429688 18.61108398 C-2.18318402 21.34757356 -2.98127863 24.07820626 -3.78125 26.80859375 C-4.20399753 28.27050584 -4.62614737 29.73259089 -5.04772949 31.19483948 C-5.92760055 34.24114826 -6.81218356 37.28603095 -7.70068359 40.32983398 C-8.84035375 44.23421973 -9.97183284 48.14091682 -11.10030365 52.04855251 C-12.17875357 55.78184946 -13.26103558 59.51403175 -14.34375 63.24609375 C-14.54995468 63.9579376 -14.75615936 64.66978146 -14.96861267 65.40319633 C-15.55053271 67.40931202 -16.13515328 69.41461895 -16.72070312 71.41967773 C-17.05299927 72.56057358 -17.38529541 73.70146942 -17.72766113 74.87693787 C-18.5625 77.5625 -18.5625 77.5625 -19.5625 79.5625 C-18.86289123 79.43365669 -18.16328245 79.30481339 -17.44247341 79.17206573 C-0.40876481 76.03549824 16.62619155 72.90579996 33.66256046 69.78371429 C41.90123212 68.27372435 50.13946707 66.76142412 58.37670898 65.24365234 C65.55741313 63.92056144 72.73890335 62.60183824 79.92136568 61.28832388 C83.72335484 60.59286697 87.52491845 59.89524966 91.32554817 59.19239807 C94.90564546 58.53040098 98.48676841 57.87426624 102.06874847 57.22253609 C104.00405064 56.86886191 105.93822787 56.50904917 107.87236023 56.14903259 C123.36537675 53.34524481 123.36537675 53.34524481 128.1875 56.25 C131.53173756 58.62955365 132.99999969 59.75735212 134.4375 63.5625 C135.74138245 71.51471552 132.66044969 76.95962466 128.75 83.6875 C128.16275146 84.73301025 127.57550293 85.77852051 126.97045898 86.85571289 C125.14302213 90.10121149 123.29095665 93.33180836 121.4375 96.5625 C120.34680136 98.49487787 119.25817777 100.42842879 118.171875 102.36328125 C116.03908841 106.15760015 113.89693257 109.94635375 111.74609375 113.73046875 C108.32939584 119.74543916 104.94178303 125.77644377 101.5625 131.8125 C100.9845166 132.84479736 100.4065332 133.87709473 99.81103516 134.94067383 C95.48190593 142.68014305 91.17650076 150.43265062 86.875 158.1875 C81.7436588 167.43840575 76.56633679 176.66155763 71.34912109 185.86425781 C66.55000644 194.33981882 61.8199394 202.85300355 57.09594727 211.37060547 C51.15117618 222.08722941 45.16526111 232.78050966 39.17138672 243.46972656 C36.25810861 248.66620742 33.34793473 253.86442626 30.4375 259.0625 C26.95073215 265.28991207 23.46337556 271.51698933 19.97265625 277.7421875 C13.91689914 288.54453312 7.88141126 299.35763013 1.875 310.1875 C-3.25628598 319.43843606 -8.4336635 328.66155816 -13.65087891 337.86425781 C-18.44999356 346.33981882 -23.1800606 354.85300355 -27.90405273 363.37060547 C-33.84882382 374.08722941 -39.83473889 384.78050966 -45.82861328 395.46972656 C-48.74189139 400.66620742 -51.65206527 405.86442626 -54.5625 411.0625 C-58.04926785 417.28991207 -61.53662444 423.51698933 -65.02734375 429.7421875 C-70.44397683 439.40445458 -75.85035777 449.07205573 -81.22314453 458.75878906 C-86.67052471 468.57945752 -92.12565939 478.39581588 -97.625 488.1875 C-98.13683838 489.1048291 -98.64867676 490.0221582 -99.17602539 490.96728516 C-109.67321279 509.59940426 -109.67321279 509.59940426 -115.5625 511.5625 C-120.25521727 512.01372281 -123.62921758 511.61014632 -127.70654297 509.14916992 C-131.76661089 505.67819105 -133.99009919 500.69639842 -136.5 496.0625 C-137.48070728 494.30701178 -138.46144114 492.55153792 -139.44354248 490.79682922 C-140.46885554 488.95927742 -141.48621685 487.11749352 -142.50244141 485.27490234 C-144.51306852 481.63871757 -146.5671649 478.02868904 -148.63671875 474.42578125 C-148.97148727 473.8429538 -149.3062558 473.26012634 -149.65116882 472.65963745 C-150.32584551 471.48550472 -151.00064484 470.31144246 -151.67556763 469.13745117 C-157.37587349 459.20940556 -163.0108493 449.24420017 -168.63598633 439.2734375 C-174.88494102 428.2050088 -181.20164645 417.17531105 -187.51416016 406.14306641 C-190.53350679 400.86580481 -193.54940319 395.58657184 -196.56552124 390.3074646 C-198.2310358 387.39239353 -199.89677963 384.47745347 -201.5625 381.5625 C-202.22916776 380.39583396 -202.89583443 379.22916729 -203.5625 378.0625 C-203.8925 377.485 -204.2225 376.9075 -204.5625 376.3125 C-207.5625 371.0625 -207.5625 371.0625 -208.56246948 369.31254578 C-209.22922911 368.14572151 -209.8959975 366.97890226 -210.56277466 365.81208801 C-212.22809088 362.89787354 -213.89325537 359.98357258 -215.55810547 357.0690918 C-218.57404606 351.78974336 -221.59112341 346.51106056 -224.61380005 341.23556519 C-226.3057784 338.28246984 -227.99687464 335.32887011 -229.6875 332.375 C-230.02005798 331.79399536 -230.35261597 331.21299072 -230.69525146 330.61437988 C-235.40919898 322.37464849 -240.06617995 314.10453158 -244.6875 305.8125 C-249.78464598 296.66804429 -255.01248746 287.60890908 -260.31298828 278.58105469 C-265.09173087 270.42131504 -269.71426686 262.18041893 -274.3125 253.91796875 C-278.31214452 246.74896305 -282.40598044 239.64157237 -286.5625 232.5625 C-291.93529449 223.41195939 -297.1552244 214.18581625 -302.31469727 204.91357422 C-306.29065635 197.78621733 -310.36413998 190.72310908 -314.5 183.6875 C-320.14149163 174.08684496 -325.57462614 164.38297748 -330.95458984 154.63378906 C-335.63366362 146.17728121 -340.46239703 137.81909066 -345.35888672 129.48706055 C-350.15735625 121.30394417 -354.80758929 113.04354127 -359.42480469 104.75708008 C-363.8690054 96.78414361 -368.37610973 88.84913318 -372.92041016 80.93286133 C-373.38624512 80.12099365 -373.85208008 79.30912598 -374.33203125 78.47265625 C-374.94461792 77.40736694 -374.94461792 77.40736694 -375.56958008 76.32055664 C-377.98616588 72.04176776 -378.14462047 68.43263461 -377.5625 63.5625 C-375.84143862 59.98798791 -374.2120475 58.07880699 -371.125 55.625 C-360.89477396 52.57387995 -348.53561685 56.45633394 -338.21557617 58.33813477 C-336.61771891 58.6245462 -335.01975943 58.91038789 -333.42170715 59.19570923 C-329.12404374 59.96466641 -324.82783742 60.74149204 -320.53186584 61.51983762 C-316.0270684 62.33460129 -311.52094821 63.14198337 -307.01496887 63.95018005 C-298.50046756 65.47849039 -289.98716036 67.01334753 -281.47427207 68.5506143 C-271.77495388 70.30179447 -262.07431263 72.04558995 -252.3735584 73.78879464 C-232.43506559 77.37186819 -212.49823576 80.96412041 -192.5625 84.5625 C-192.56426176 83.53172175 -192.56602352 82.50094351 -192.56783867 81.43892956 C-192.56926353 80.07355949 -192.57064536 78.70818937 -192.57199097 77.34281921 C-192.57389954 76.32604512 -192.57389954 76.32604512 -192.57584667 75.28873014 C-192.58076098 68.63790743 -192.25057262 62.04049456 -191.81787109 55.40600586 C-191.68513836 53.33820878 -191.56701444 51.26986785 -191.44921875 49.20117188 C-191.3654578 47.86973637 -191.28085523 46.53835347 -191.1953125 45.20703125 C-191.12199707 44.02471924 -191.04868164 42.84240723 -190.97314453 41.62426758 C-190.58269373 38.71306458 -190.2493358 36.94509603 -188.5625 34.5625 C-185.56527529 32.78964922 -182.71093634 32.04990002 -179.30818176 31.38876343 C-178.24285217 31.17880737 -177.17752258 30.96885132 -176.07991028 30.75253296 C-174.915056 30.52917267 -173.75020172 30.30581238 -172.55004883 30.07568359 C-171.31809784 29.83464905 -170.08614685 29.5936145 -168.81686401 29.34527588 C-165.42910034 28.68259175 -162.03996564 28.02717856 -158.65054917 27.37300825 C-155.06142878 26.67898709 -151.47362263 25.97823613 -147.88566589 25.27822876 C-141.04360398 23.94439987 -134.20039571 22.61655088 -127.35675496 21.29084933 C-118.98618994 19.66906496 -110.61710948 18.03967259 -102.24804688 16.41015625 C-93.43131754 14.69359106 -84.61433573 12.97837634 -75.79592896 11.27044678 C-72.97021587 10.72304072 -70.14452109 10.17554037 -67.31884766 9.62792969 C-66.63541235 9.49548717 -65.95197705 9.36304465 -65.24783158 9.22658873 C-56.29216613 7.49024034 -47.34167206 5.72950903 -38.39599609 3.94238281 C-36.46118181 3.55762069 -34.526343 3.17298184 -32.59147644 2.78848267 C-29.17255363 2.10905901 -25.75567118 1.42049291 -22.33979797 0.72592163 C-20.85771478 0.43097748 -19.37555759 0.13640478 -17.89331055 -0.15771484 C-16.65550339 -0.40774261 -15.41769623 -0.65777039 -14.14237976 -0.91537476 C-4.21326024 -2.36353623 -4.21326024 -2.36353623 0 0 Z " fill="#8C72FD" transform="translate(377.5625,1.4375)"/>
<path d="M0 0 C3.10163312 5.52899816 0.1740454 12.8509322 -1.41674805 18.61669922 C-2.20562662 21.3709268 -3.01401643 24.11917015 -3.82421875 26.8671875 C-4.25740818 28.35563359 -4.68999833 29.8442542 -5.12202454 31.33303833 C-6.02793571 34.44927266 -6.93863564 37.5640498 -7.85327148 40.67773438 C-9.00839079 44.61022057 -10.15531517 48.54503099 -11.29912186 52.48082066 C-15.51470411 66.98360799 -19.75812556 81.4723665 -24.37524414 95.85351562 C-25.97130744 100.83961342 -27.4825131 105.84615185 -28.9375 110.875 C-29.32615234 112.1734082 -29.32615234 112.1734082 -29.72265625 113.49804688 C-31.00425869 117.92940769 -32.08404643 121.90382171 -31.5625 126.5625 C-30.9025 127.5525 -30.2425 128.5425 -29.5625 129.5625 C-19.20129244 129.18435374 -9.39988425 127.25125962 0.71582031 125.12841797 C5.40758548 124.15286077 10.10849488 123.2269381 14.8125 122.3125 C15.68583984 122.1374292 16.55917969 121.9623584 17.45898438 121.78198242 C28.65408821 119.61134705 28.65408821 119.61134705 32.3125 121.5625 C34.13355178 124.79992538 33.95368798 127.98780542 33.4375 131.5625 C32.127411 135.17091376 30.37061174 138.49362736 28.5625 141.875 C28.06073242 142.84501953 27.55896484 143.81503906 27.04199219 144.81445312 C25.52392081 147.73963413 23.9842146 150.65238136 22.4375 153.5625 C21.62719274 155.09743912 20.817265 156.63257869 20.0078125 158.16796875 C18.83820316 160.38470621 17.66722751 162.60063394 16.49072266 164.8137207 C12.16792236 172.98134357 8.07035991 181.26080391 3.95687866 189.53500366 C0.06281602 197.36490629 -3.88176876 205.15983262 -8 212.875 C-11.36796852 219.18585364 -14.49097156 225.56893262 -17.48542404 232.06451035 C-19.72864493 236.89012808 -22.13825007 241.59221646 -24.65722656 246.27832031 C-32.20618764 260.49039256 -39.27759433 274.94864368 -46.43727875 289.35915375 C-49.09079373 294.69923977 -51.7493701 300.03679603 -54.40899658 305.37384033 C-55.32500916 307.21212349 -56.24102097 309.05040703 -57.15703201 310.88869095 C-57.61507674 311.80789652 -58.07312146 312.7271021 -58.54504633 313.67416239 C-64.72042343 326.06772741 -70.89194888 338.4631896 -77.05224609 350.86425781 C-81.23169904 359.27766182 -85.41827091 367.68748104 -89.61300302 376.09327817 C-91.82502173 380.52666452 -94.03336093 384.96179843 -96.23290253 389.40139008 C-98.29609401 393.56568164 -100.36860597 397.72519867 -102.4482708 401.88128662 C-103.20718942 403.40208597 -103.9626962 404.92459368 -104.7144413 406.44895172 C-111.96407424 421.14039051 -111.96407424 421.14039051 -117.5625 426.5625 C-120.1875 427.25 -120.1875 427.25 -122.5625 426.5625 C-124.9375 425.125 -124.9375 425.125 -126.5625 422.5625 C-126.11914599 415.86452479 -124.81089581 409.40087032 -123.41357422 402.84545898 C-123.19724335 401.81336304 -122.98091248 400.78126709 -122.75802612 399.71789551 C-122.29104291 397.49139662 -121.82227505 395.26527144 -121.35189438 393.03948784 C-120.60762946 389.51330967 -119.87007902 385.98578948 -119.134552 382.45777893 C-117.04383657 372.43200326 -114.94662708 362.4076284 -112.83154297 352.38696289 C-111.53565991 346.24507289 -110.25221413 340.10069442 -108.97668839 333.95454597 C-108.48935768 331.61844516 -107.99734337 329.2833162 -107.50051498 326.94921684 C-106.80616255 323.68518502 -106.12768447 320.41821707 -105.45263672 317.15014648 C-105.24489624 316.19251907 -105.03715576 315.23489166 -104.82312012 314.24824524 C-103.68702204 308.64972514 -103.52040999 304.19037771 -104.5625 298.5625 C-109.69007032 298.35280265 -113.69302606 298.97828766 -118.5625 300.56640625 C-119.87493433 300.98132758 -121.1874364 301.39603466 -122.5 301.81054688 C-124.53544546 302.46651633 -126.5692208 303.12720084 -128.6015625 303.79272461 C-130.58478961 304.438087 -132.57308189 305.06543582 -134.5625 305.69140625 C-135.738125 306.07369385 -136.91375 306.45598145 -138.125 306.84985352 C-142.02363961 307.65810132 -144.72182668 307.60709489 -148.5625 306.5625 C-152.01603323 301.53120078 -150.09101876 295.56284165 -149.09771729 289.92398071 C-148.55669156 287.1464927 -147.97660569 284.37995683 -147.3828125 281.61328125 C-147.16938202 280.59759567 -146.95595154 279.5819101 -146.73605347 278.53544617 C-146.0581389 275.31423204 -145.37307534 272.09459144 -144.6875 268.875 C-144.23517545 266.73513201 -143.78334856 264.59515877 -143.33203125 262.45507812 C-143.11190369 261.41157196 -142.89177612 260.3680658 -142.66497803 259.29293823 C-141.81878405 255.27915577 -140.97318037 251.26525003 -140.12902832 247.2510376 C-139.76992652 245.54687093 -139.40934849 243.84301412 -139.04675293 242.1395874 C-138.60623311 240.06685021 -138.17302093 237.99273705 -137.7421875 235.91796875 C-137.50999512 234.81477295 -137.27780273 233.71157715 -137.03857422 232.57495117 C-136.5457439 229.45647258 -136.26781261 226.71014693 -136.5625 223.5625 C-137.76316473 221.79870369 -137.76316473 221.79870369 -139.5625 220.5625 C-141.51589907 220.33111613 -141.51589907 220.33111613 -143.62036133 220.73217773 C-144.4189859 220.85140594 -145.21761047 220.97063416 -146.04043579 221.09347534 C-150.27397781 221.88078107 -154.45379281 222.8270049 -158.63671875 223.84765625 C-160.5397031 224.30017411 -162.44269821 224.75264673 -164.34570312 225.20507812 C-167.30850043 225.9164154 -170.27074184 226.63000677 -173.23266602 227.3449707 C-176.11604253 228.03897141 -179.00126123 228.72486814 -181.88671875 229.41015625 C-182.76809006 229.62575699 -183.64946136 229.84135773 -184.55754089 230.06349182 C-193.18696244 232.10804628 -193.18696244 232.10804628 -197.5625 231.5625 C-199.20649719 230.45292664 -199.20649719 230.45292664 -200.5625 228.5625 C-200.90682983 225.68002319 -200.90682983 225.68002319 -200.84130859 221.99365234 C-200.82457376 220.95258866 -200.82457376 220.95258866 -200.80750084 219.89049339 C-200.56377307 208.80383215 -199.78817841 197.72972527 -199.1015625 186.6640625 C-198.94891681 184.14198752 -198.79677707 181.61988188 -198.64511108 179.0977478 C-198.24549117 172.468804 -197.84063804 165.84019443 -197.43414307 159.21166992 C-196.71269264 147.44619067 -195.99902829 135.68023982 -195.2890625 123.9140625 C-195.21243629 122.64744026 -195.13581009 121.38081802 -195.05686188 120.07581329 C-193.96235395 101.93628669 -192.97595135 83.79531778 -192.1769104 65.64028931 C-191.98476748 61.28036322 -191.78064833 56.92120197 -191.5625 52.5625 C-191.52936958 51.88234077 -191.49623917 51.20218155 -191.4621048 50.50141144 C-191.36340234 48.56110215 -191.24966183 46.62157551 -191.13525391 44.68212891 C-191.07318756 43.59235748 -191.01112122 42.50258606 -190.94717407 41.37979126 C-190.56508864 38.58145877 -190.17147971 36.87157413 -188.5625 34.5625 C-185.56691644 32.787343 -182.71041484 32.0497987 -179.30818176 31.38876343 C-178.24285217 31.17880737 -177.17752258 30.96885132 -176.07991028 30.75253296 C-174.915056 30.52917267 -173.75020172 30.30581238 -172.55004883 30.07568359 C-171.31809784 29.83464905 -170.08614685 29.5936145 -168.81686401 29.34527588 C-165.42910034 28.68259175 -162.03996564 28.02717856 -158.65054917 27.37300825 C-155.06142878 26.67898709 -151.47362263 25.97823613 -147.88566589 25.27822876 C-141.04360398 23.94439987 -134.20039571 22.61655088 -127.35675496 21.29084933 C-118.98618994 19.66906496 -110.61710948 18.03967259 -102.24804688 16.41015625 C-93.43131754 14.69359106 -84.61433573 12.97837634 -75.79592896 11.27044678 C-72.97021587 10.72304072 -70.14452109 10.17554037 -67.31884766 9.62792969 C-66.63541235 9.49548717 -65.95197705 9.36304465 -65.24783158 9.22658873 C-56.29216613 7.49024034 -47.34167206 5.72950903 -38.39599609 3.94238281 C-36.46118181 3.55762069 -34.526343 3.17298184 -32.59147644 2.78848267 C-29.17255363 2.10905901 -25.75567118 1.42049291 -22.33979797 0.72592163 C-20.85771478 0.43097748 -19.37555759 0.13640478 -17.89331055 -0.15771484 C-16.65550339 -0.40774261 -15.41769623 -0.65777039 -14.14237976 -0.91537476 C-4.21326024 -2.36353623 -4.21326024 -2.36353623 0 0 Z " fill="#FECA24" transform="translate(377.5625,1.4375)"/>
</svg>
