<?xml version="1.0" encoding="UTF-8"?>
<svg version="1.1" xmlns="http://www.w3.org/2000/svg" width="500" height="500">
<path d="M0 0 C0.33 0.33 0.66 0.66 1 1 C0.6905792 6.94246609 -1.1544936 10.51062516 -4.41015625 15.26171875 C-4.85588486 15.93362747 -5.30161346 16.60553619 -5.760849 17.29780579 C-7.1830537 19.43578212 -8.62228326 21.56162695 -10.0625 23.6875 C-11.00311027 25.09493047 -11.94257365 26.50312814 -12.88085938 27.91210938 C-15.16646134 31.338934 -17.46533842 34.7565978 -19.76855469 38.17160034 C-21.46977549 40.69750344 -23.15951682 43.23096475 -24.84765625 45.765625 C-25.48276123 46.71912842 -26.11786621 47.67263184 -26.7722168 48.6550293 C-27.11860199 49.17519623 -27.46498718 49.69536316 -27.8218689 50.23129272 C-30.30448815 53.95840486 -32.78920939 57.68411637 -35.2734375 61.41015625 C-36.43034566 63.14550306 -37.58724655 64.88085473 -38.74414062 66.61621094 C-43.39596558 73.59394836 -43.39596558 73.59394836 -48.04779053 80.57168579 C-48.66881653 81.50322479 -49.28984253 82.43476379 -49.9296875 83.39453125 C-53.60807292 88.91210938 -57.28645833 94.4296875 -60.96484375 99.94726562 C-61.35027344 100.52541016 -61.73570312 101.10355469 -62.1328125 101.69921875 C-66.421875 108.1328125 -70.7109375 114.56640625 -75 121 C-75.62001892 121.93002838 -75.62001892 121.93002838 -76.25256348 122.87884521 C-77.57705688 124.86558533 -77.57705688 124.86558533 -78.90155029 126.85232544 C-79.34911682 127.52367523 -79.79668335 128.19502502 -80.2578125 128.88671875 C-82.94140625 132.91210938 -82.94140625 132.91210938 -85.625 136.9375 C-86.03983643 137.55975464 -86.45467285 138.18200928 -86.88208008 138.82312012 C-87.68830754 140.03246131 -88.49453616 141.24180174 -89.30076599 142.45114136 C-90.08044865 143.62067041 -90.86012201 144.79020566 -91.63978577 145.95974731 C-93.46137993 148.69222362 -95.28315235 151.42458075 -97.10522461 154.15673828 C-100.31975096 158.97717048 -103.53199887 163.79907973 -106.73828125 168.625 C-107.33060547 169.51574219 -107.92292969 170.40648437 -108.53320312 171.32421875 C-109.73979838 173.1387473 -110.94549902 174.95387099 -112.15039062 176.76953125 C-113.02920898 178.09017578 -113.02920898 178.09017578 -113.92578125 179.4375 C-114.44567627 180.21996094 -114.96557129 181.00242188 -115.5012207 181.80859375 C-117 184 -117 184 -118.75463867 185.97265625 C-120.23859329 187.94857325 -120.23859329 187.94857325 -119.83398438 190.41796875 C-118.946024 193.16711072 -117.89214755 195.70030399 -116.65625 198.3125 C-116.16068604 199.36872559 -115.66512207 200.42495117 -115.15454102 201.51318359 C-114.60854248 202.66383301 -114.06254395 203.81448242 -113.5 205 C-112.61904816 206.87318049 -111.74028803 208.74737886 -110.86170959 210.62167358 C-110.23479033 211.95903951 -109.6072832 213.29612999 -108.97923279 214.63296509 C-105.48673881 222.07363584 -102.06470056 229.54636198 -98.64178467 237.01922607 C-91.87058219 251.7988507 -85.03820272 266.54873302 -78.1484375 281.2734375 C-77.64094971 282.35955322 -77.13346191 283.44566895 -76.6105957 284.56469727 C-75.44549559 287.04978499 -74.27467233 289.53169846 -73.09838867 292.01147461 C-72.7804837 292.6848587 -72.46257874 293.3582428 -72.13504028 294.05203247 C-71.52301235 295.34839318 -70.90839997 296.64353811 -70.29074097 297.93722534 C-68.10887837 302.57029776 -66.52402452 306.90267057 -66 312 C-65.91878906 312.76183594 -65.83757812 313.52367187 -65.75390625 314.30859375 C-65.23813053 324.07707336 -68.23664851 333.68316206 -74.33984375 341.31640625 C-78.34432173 345.37741804 -82.68027592 348.01872049 -87.8359375 350.36328125 C-88.49912994 350.67192612 -89.16232239 350.98057098 -89.84561157 351.29856873 C-91.2739727 351.96259253 -92.70374009 352.62359821 -94.13476562 353.28186035 C-97.97904818 355.05045656 -101.81305232 356.84111882 -105.6484375 358.62890625 C-106.43232849 358.99358002 -107.21621948 359.35825378 -108.02386475 359.73397827 C-115.72372882 363.3220899 -123.36429121 367.0278494 -131 370.75 C-141.33189649 375.77965556 -151.7183963 380.67131496 -162.16967773 385.44897461 C-170.52755539 389.28405048 -178.79890535 393.280021 -187.0625 397.3125 C-198.57184518 402.92743838 -210.1708194 408.30789593 -221.84558105 413.56942749 C-232.35448403 418.30802258 -242.76821367 423.20444966 -253.13891602 428.24023438 C-261.90056849 432.48940616 -270.71488044 436.61338647 -279.56494141 440.67504883 C-285.95824192 443.62046104 -292.31499657 446.62632448 -298.63822937 449.71972656 C-302.25331385 451.48782703 -305.87435959 453.24356253 -309.49526978 454.99969482 C-311.27570925 455.86788586 -313.05310665 456.74234622 -314.82723999 457.62335205 C-317.32916417 458.86519037 -319.84090982 460.08477627 -322.35546875 461.30078125 C-323.09506836 461.67510788 -323.83466797 462.04943451 -324.59667969 462.43510437 C-329.75096913 464.89267314 -334.28887321 465.73785264 -340 465 C-341 464 -341 464 -341.35400391 461.44580078 C-340.87016673 456.73622985 -338.87316009 453.79014598 -336.3359375 449.8671875 C-335.84241791 449.0832663 -335.34889832 448.29934509 -334.84042358 447.4916687 C-329.54383931 439.14307126 -324.00459399 430.95331066 -318.43676758 422.78417969 C-315.24181756 418.09486617 -312.06186639 413.39541187 -308.8828125 408.6953125 C-308.22786804 407.72716614 -307.57292358 406.75901978 -306.89813232 405.76153564 C-300.01167265 395.56484461 -293.25127952 385.28647116 -286.5 375 C-277.42426027 361.17856956 -268.27725577 347.4095343 -259.01834106 333.71005249 C-257.2072631 331.02925378 -255.39904589 328.34654679 -253.59155273 325.66333008 C-248.28094264 317.78487048 -242.95519932 309.91869474 -237.55711365 302.099823 C-235.25582641 298.76066792 -232.9701984 295.41097961 -230.68716431 292.05932617 C-229.61397783 290.49259527 -228.53334332 288.93093722 -227.44491577 287.37475586 C-225.9560678 285.24519784 -224.49323231 283.09991394 -223.03515625 280.94921875 C-222.59203094 280.32939621 -222.14890564 279.70957367 -221.69235229 279.07096863 C-219.73660273 276.13272772 -218.89569446 274.59024897 -219.52026367 271.0559082 C-220.00857666 270.0474585 -220.49688965 269.03900879 -221 268 C-221.26305435 267.4131694 -221.5261087 266.82633881 -221.7971344 266.22172546 C-222.7126242 264.18329202 -223.67235583 262.17012444 -224.640625 260.15625 C-224.99909012 259.40322601 -225.35755524 258.65020203 -225.72688293 257.87435913 C-226.49703072 256.25730829 -227.2687102 254.64098621 -228.04177856 253.02532959 C-230.1012683 248.72074582 -232.14939685 244.41075606 -234.19921875 240.1015625 C-234.61147202 239.2357254 -235.02372528 238.36988831 -235.44847107 237.47781372 C-239.02513365 229.96135486 -242.55339999 222.423188 -246.0625 214.875 C-249.82583515 206.78128214 -253.60958637 198.69807489 -257.43359375 190.6328125 C-257.81306656 189.83189178 -258.19253937 189.03097107 -258.58351135 188.20578003 C-260.43269612 184.30342758 -262.28448271 180.40234957 -264.14086914 176.50341797 C-267.31585995 169.82123191 -270.45933393 163.12324616 -273.45703125 156.359375 C-273.93374268 155.29170898 -274.4104541 154.22404297 -274.90161133 153.12402344 C-277.47226095 145.81261366 -277.12511805 138.65901051 -273.9375 131.625 C-268.33540014 120.94894437 -258.21299295 116.73064561 -247.8125 111.875 C-246.22689446 111.12146396 -244.64185912 110.366727 -243.05737305 109.61083984 C-238.38130206 107.38627786 -233.69255141 105.18954069 -229 103 C-227.75650796 102.41862506 -226.51301819 101.83724524 -225.26953125 101.25585938 C-220.8440334 99.1907968 -216.41514157 97.13338328 -211.98022461 95.08862305 C-201.7411247 90.36617034 -191.55590893 85.53385825 -181.375 80.6875 C-168.92946391 74.76412396 -156.47597949 68.85899888 -144 63 C-131.65084238 57.19975994 -119.32102416 51.35975573 -107 45.5 C-93.22743522 38.95029119 -79.44326783 32.42627272 -65.63867188 25.94433594 C-58.16336711 22.4336647 -50.69473998 18.90951051 -43.234375 15.3671875 C-40.7834717 14.20479833 -38.33247791 13.04260013 -35.88146973 11.88043213 C-34.31771979 11.13815388 -32.75447051 10.3948198 -31.19177246 9.65032959 C-6.91782559 -1.91344112 -6.91782559 -1.91344112 0 0 Z " fill="#1D92D5" transform="translate(420,18)"/>
<path d="M0 0 C0.33 0.33 0.66 0.66 1 1 C0.6905792 6.94246609 -1.1544936 10.51062516 -4.41015625 15.26171875 C-4.85588486 15.93362747 -5.30161346 16.60553619 -5.760849 17.29780579 C-7.1830537 19.43578212 -8.62228326 21.56162695 -10.0625 23.6875 C-11.00311027 25.09493047 -11.94257365 26.50312814 -12.88085938 27.91210938 C-15.16646134 31.338934 -17.46533842 34.7565978 -19.76855469 38.17160034 C-21.46977549 40.69750344 -23.15951682 43.23096475 -24.84765625 45.765625 C-25.48276123 46.71912842 -26.11786621 47.67263184 -26.7722168 48.6550293 C-27.29179459 49.43527969 -27.29179459 49.43527969 -27.8218689 50.23129272 C-30.30448815 53.95840486 -32.78920939 57.68411637 -35.2734375 61.41015625 C-36.43034566 63.14550306 -37.58724655 64.88085473 -38.74414062 66.61621094 C-41.84535726 71.26803589 -44.94657389 75.91986084 -48.04779053 80.57168579 C-48.66881653 81.50322479 -49.28984253 82.43476379 -49.9296875 83.39453125 C-53.60807292 88.91210938 -57.28645833 94.4296875 -60.96484375 99.94726562 C-61.35027344 100.52541016 -61.73570312 101.10355469 -62.1328125 101.69921875 C-68.56640625 111.34960938 -68.56640625 111.34960938 -75 121 C-75.41334595 121.62001892 -75.82669189 122.24003784 -76.25256348 122.87884521 C-77.57705688 124.86558533 -77.57705688 124.86558533 -78.90155029 126.85232544 C-79.34911682 127.52367523 -79.79668335 128.19502502 -80.2578125 128.88671875 C-82.046875 131.5703125 -83.8359375 134.25390625 -85.625 136.9375 C-86.03983643 137.55975464 -86.45467285 138.18200928 -86.88208008 138.82312012 C-87.68831302 140.03246953 -88.49455171 141.24181511 -89.30079651 142.45115662 C-90.08041506 143.62060973 -90.8599871 144.79009385 -91.63951111 145.95960999 C-93.46178757 148.69345023 -95.28495391 151.42668889 -97.10961914 154.15893555 C-100.31341216 158.95787253 -103.50572067 163.7634115 -106.66796875 168.58984375 C-107.25126953 169.47607422 -107.83457031 170.36230469 -108.43554688 171.27539062 C-109.61961744 173.07459707 -110.79919402 174.87676787 -111.97460938 176.68164062 C-114.99743908 181.25791563 -117.9212038 185.32063394 -122 189 C-122.4846875 188.030625 -122.969375 187.06125 -123.46875 186.0625 C-123.78859863 185.42296387 -124.10844727 184.78342773 -124.43798828 184.12451172 C-125.15562981 182.68889871 -125.87273854 181.25301926 -126.58935547 179.81689453 C-128.4146615 176.16071994 -130.24675494 172.50849526 -132.1015625 168.8671875 C-144.89743963 143.69255675 -154.99839427 115.98771452 -146.32421875 87.6484375 C-142.63709105 77.48980247 -137.05883735 69.10505789 -130 61 C-129.59241455 60.40912598 -129.1848291 59.81825195 -128.76489258 59.20947266 C-123.16655824 51.71273171 -114.97244873 48.69886877 -106.6875 45 C-105.072636 44.26114757 -103.45871811 43.52022416 -101.84570312 42.77734375 C-98.52521767 41.25040069 -95.20065477 39.73293594 -91.87255859 38.22265625 C-85.24098837 35.20683294 -78.65605864 32.09349288 -72.07070923 28.97839355 C-69.30164206 27.67003146 -66.52965222 26.36792555 -63.75773621 25.06561279 C-56.90426745 21.8451697 -50.05927577 18.60721308 -43.21875 15.359375 C-40.77172122 14.19889967 -38.32459346 13.03863332 -35.87744141 11.87841797 C-34.31539128 11.13701361 -32.75385134 10.3945332 -31.19287109 9.65087891 C-6.91783255 -1.91344305 -6.91783255 -1.91344305 0 0 Z " fill="#2887C7" transform="translate(420,18)"/>
<path d="M0 0 C0.66 0 1.32 0 2 0 C3.32 2.64 4.64 5.28 6 8 C3.69 7.67 1.38 7.34 -1 7 C-1.25910156 7.72574219 -1.51820313 8.45148438 -1.78515625 9.19921875 C-3.04843186 12.11165802 -4.52318257 14.2852826 -6.4375 16.8125 C-10.01529667 21.648785 -13.54360755 26.51347013 -17 31.4375 C-17.49298584 32.12368408 -17.98597168 32.80986816 -18.49389648 33.5168457 C-18.94966064 34.16999756 -19.4054248 34.82314941 -19.875 35.49609375 C-20.28492188 36.07544678 -20.69484375 36.6547998 -21.1171875 37.25170898 C-22.30050018 39.26867671 -22.30050018 39.26867671 -22 43 C-20.06116478 45.64614963 -20.06116478 45.64614963 -17.5 48.375 C-2.02261335 66.19093466 3.26645973 86.72819586 2 110 C0.83328883 118.94835358 -3.47291328 127.28007452 -8 135 C-8.43932861 135.79865479 -8.87865723 136.59730957 -9.33129883 137.42016602 C-14.07677938 145.19770557 -20.03588018 148.23856642 -28.1875 151.8125 C-29.48908709 152.40857312 -30.78944065 153.00734629 -32.08862305 153.60864258 C-34.75798493 154.83899834 -37.43356225 156.05377685 -40.11621094 157.25488281 C-44.76996845 159.33984198 -49.39079785 161.49377772 -54.01171875 163.65039062 C-56.2250881 164.68111351 -58.4412819 165.70579134 -60.66015625 166.72460938 C-67.02003964 169.64930491 -73.34098499 172.63894759 -79.62916565 175.7151947 C-83.24660277 177.48446407 -86.87000045 179.24137059 -90.49325562 180.99868774 C-92.27454728 181.86731081 -94.05280082 182.74219497 -95.82778931 183.62362671 C-98.3295303 184.86537389 -100.8410922 186.08486915 -103.35546875 187.30078125 C-104.09505829 187.67510284 -104.83464783 188.04942444 -105.59664917 188.43508911 C-110.75095097 190.89266547 -115.28885771 191.73785464 -121 191 C-122 190 -122 190 -122.35400391 187.44580078 C-121.87016673 182.73622985 -119.87316009 179.79014598 -117.3359375 175.8671875 C-116.84241791 175.0832663 -116.34889832 174.29934509 -115.84042358 173.4916687 C-110.54383931 165.14307126 -105.00459399 156.95331066 -99.43676758 148.78417969 C-96.24181756 144.09486617 -93.06186639 139.39541187 -89.8828125 134.6953125 C-89.22786804 133.72716614 -88.57292358 132.75901978 -87.89813232 131.76153564 C-81.01167265 121.56484461 -74.25127952 111.28647116 -67.5 101 C-56.64927078 84.47544073 -45.66794261 68.04467492 -34.58276367 51.67651367 C-28.64972872 42.91279531 -22.74597637 34.13220244 -16.9140625 25.30078125 C-16.35106949 24.44966766 -15.78807648 23.59855408 -15.20802307 22.72164917 C-12.54151121 18.69019028 -9.88150439 14.65474115 -7.2331543 10.61132812 C-6.29767438 9.19510695 -5.36190131 7.77907937 -4.42578125 6.36328125 C-3.792061 5.38709587 -3.792061 5.38709587 -3.14553833 4.39118958 C-2.14894999 2.89162436 -1.08145018 1.43956579 0 0 Z " fill="#2A90CD" transform="translate(201,292)"/>
<path d="M0 0 C-0.86625 0.76183594 -0.86625 0.76183594 -1.75 1.5390625 C-4.48454039 4.52996605 -6.22692796 7.76948102 -8 11.375 C-8.34812744 12.08108398 -8.69625488 12.78716797 -9.05493164 13.51464844 C-17.55902227 31.29936807 -19.11146152 49.2477698 -12.875 68.0625 C-8.5133303 79.3090146 -3.02743734 88.66006266 5.49462891 97.18212891 C9 100.71725908 9 100.71725908 9 104 C7.7421875 106.1796875 7.7421875 106.1796875 5.875 108.875 C5.15441406 109.92558594 4.43382812 110.97617188 3.69140625 112.05859375 C3.27391113 112.66558105 2.85641602 113.27256836 2.42626953 113.89794922 C0.76692386 116.34351002 -0.85373849 118.81265126 -2.47265625 121.28515625 C-3.08415527 122.21537598 -3.6956543 123.1455957 -4.32568359 124.10400391 C-5.54985852 125.96707422 -6.77034857 127.83257192 -7.98681641 129.70068359 C-11.00578304 134.27013603 -13.92702265 138.32588296 -18 142 C-18.4846875 141.030625 -18.969375 140.06125 -19.46875 139.0625 C-19.78859863 138.42296387 -20.10844727 137.78342773 -20.43798828 137.12451172 C-21.15562981 135.68889871 -21.87273854 134.25301926 -22.58935547 132.81689453 C-24.4146615 129.16071994 -26.24675494 125.50849526 -28.1015625 121.8671875 C-40.89743963 96.69255675 -50.99839427 68.98771452 -42.32421875 40.6484375 C-38.61947155 30.44125791 -33.00125435 22.19865198 -26 14 C-25.49339844 13.29101562 -24.98679687 12.58203125 -24.46484375 11.8515625 C-20.81866791 6.98377787 -16.71768345 4.5022011 -11.3125 1.9375 C-10.65822021 1.62594971 -10.00394043 1.31439941 -9.32983398 0.9934082 C-3.53518732 -1.56622223 -3.53518732 -1.56622223 0 0 Z " fill="#094D99" transform="translate(316,65)"/>
<path d="M0 0 C3.22216797 0.00952148 3.22216797 0.00952148 7 1 C9.06604273 3.32951523 10.19701242 6.01509127 11.4453125 8.84765625 C11.82307831 9.65174423 12.20084412 10.45583221 12.59005737 11.2842865 C13.38722715 12.99434757 14.17152608 14.71045864 14.94384766 16.43188477 C16.10290903 19.01329987 17.29898328 21.57449018 18.50390625 24.13476562 C28.22006154 45.04734106 36.27594452 69.14103305 29.08984375 92.22265625 C22.01445247 110.2534921 12.05366849 121.67786647 -4.36523438 131.85595703 C-6.07221965 132.97331785 -6.07221965 132.97331785 -7.54492188 134.59716797 C-9.52158765 136.5028595 -11.33240427 136.63951409 -14 137 C-13.54109375 136.29875 -13.0821875 135.5975 -12.609375 134.875 C-0.77012698 116.56893584 5.50804745 98.66362379 0.97436523 76.69311523 C-2.31110932 63.23501335 -8.82488377 51.32934194 -18 41 C-19.00362604 39.79467672 -20.00419681 38.58679431 -21 37.375 C-21.66 36.59125 -22.32 35.8075 -23 35 C-17.15683559 22.59406965 -7.74583616 11.28537119 0 0 Z " fill="#044993" transform="translate(200,299)"/>
<path d="M0 0 C0.33 0.66 0.66 1.32 1 2 C0.39414062 2.90878906 -0.21171875 3.81757813 -0.8359375 4.75390625 C-1.23594971 5.35412598 -1.63596191 5.9543457 -2.0480957 6.57275391 C-2.94171512 7.91277198 -3.83609884 9.25228063 -4.73120117 10.59130859 C-7.07701088 14.10285256 -9.41024687 17.62140366 -11.71484375 21.16015625 C-12.15070801 21.82523193 -12.58657227 22.49030762 -13.03564453 23.17553711 C-13.86564136 24.44275024 -14.69110156 25.71295049 -15.51123047 26.98657227 C-18.02523754 30.81028742 -20.68442253 33.88981229 -24 37 C-27 32.25 -27 32.25 -27 30 C-26.10667969 30.12375 -25.21335937 30.2475 -24.29296875 30.375 C-20.8090708 30.33435558 -20.8090708 30.33435558 -18.61328125 27.5 C-17.82571012 26.34716871 -17.05999408 25.17921197 -16.3125 24 C-15.89822754 23.38366699 -15.48395508 22.76733398 -15.05712891 22.13232422 C-14.16536685 20.80414676 -13.28185916 19.47039793 -12.40576172 18.13183594 C-10.4417566 15.15342456 -8.40735767 12.2254913 -6.37573242 9.29296875 C-4.23753989 6.20412058 -2.11903691 3.10201221 0 0 Z " fill="#1C53A3" transform="translate(322,170)"/>
<path d="M0 0 C-1.08667969 0.48919922 -1.08667969 0.48919922 -2.1953125 0.98828125 C-3.16210938 1.42527344 -4.12890625 1.86226563 -5.125 2.3125 C-6.07632812 2.74175781 -7.02765625 3.17101562 -8.0078125 3.61328125 C-8.99523437 4.07089844 -9.98265625 4.52851562 -11 5 C-11.99 5.433125 -12.98 5.86625 -14 6.3125 C-17.57875635 8.32555045 -20.06797321 10.7317313 -22.875 13.6875 C-23.37257813 14.19861328 -23.87015625 14.70972656 -24.3828125 15.23632812 C-25.59558176 16.48408112 -26.79880719 17.74109864 -28 19 C-28 14.24714323 -25.10927084 11.97846487 -21.984375 8.58984375 C-18.58499246 5.63985603 -15.24398462 3.70647873 -11.1875 1.8125 C-10.54159912 1.50924805 -9.89569824 1.20599609 -9.23022461 0.89355469 C-5.84916744 -0.56999969 -3.49025592 -1.52094276 0 0 Z " fill="#1D65B0" transform="translate(316,65)"/>
<path d="M0 0 C0.66 0.33 1.32 0.66 2 1 C2 1.99 2 2.98 2 4 C0.21289414 4.86366822 -1.5798465 5.71568594 -3.375 6.5625 C-4.37273437 7.03816406 -5.37046875 7.51382812 -6.3984375 8.00390625 C-7.25695312 8.33261719 -8.11546875 8.66132813 -9 9 C-9.66 8.67 -10.32 8.34 -11 8 C-7.37 5.36 -3.74 2.72 0 0 Z " fill="#216BB4" transform="translate(204,424)"/>
</svg>
