<?xml version="1.0" encoding="UTF-8"?>
<svg version="1.1" xmlns="http://www.w3.org/2000/svg" width="512" height="512">
<path d="M0 0 C1.9251116 0.02009883 3.85024349 0.03834361 5.77539062 0.0546875 C10.45493504 0.09840786 15.13348973 0.16724762 19.8125 0.25 C19.842229 1.26984985 19.842229 1.26984985 19.87255859 2.31030273 C19.96871282 5.43637741 20.07802066 8.56186473 20.1875 11.6875 C20.2184375 12.75677734 20.249375 13.82605469 20.28125 14.92773438 C20.62198057 24.21264229 21.26069837 31.66253778 26.8125 39.25 C26.8125 39.91 26.8125 40.57 26.8125 41.25 C28.13508472 41.93774405 29.47236503 42.59711373 30.8125 43.25 C31.8025 43.78625 32.7925 44.3225 33.8125 44.875 C39.54306843 47.2781416 46.21336452 47.25944033 52.15234375 45.59375 C58.09965881 42.94542545 62.18407013 38.42931546 65.125 32.6875 C68.10924531 22.10699392 67.35430818 11.24660372 67.8125 0.25 C94.2125 0.25 120.6125 0.25 147.8125 0.25 C148.1425 8.17 148.4725 16.09 148.8125 24.25 C150.64039121 32.69446545 150.64039121 32.69446545 154.8125 39.25 C154.8125 39.91 154.8125 40.57 154.8125 41.25 C156.13508472 41.93774405 157.47236503 42.59711373 158.8125 43.25 C159.8025 43.78625 160.7925 44.3225 161.8125 44.875 C167.54306843 47.2781416 174.21336452 47.25944033 180.15234375 45.59375 C186.09965881 42.94542545 190.18407013 38.42931546 193.125 32.6875 C196.10924531 22.10699392 195.35430818 11.24660372 195.8125 0.25 C222.2125 0.25 248.6125 0.25 275.8125 0.25 C276.1425 8.17 276.4725 16.09 276.8125 24.25 C278.64039121 32.69446545 278.64039121 32.69446545 282.8125 39.25 C282.8125 39.91 282.8125 40.57 282.8125 41.25 C284.13508472 41.93774405 285.47236503 42.59711373 286.8125 43.25 C288.2975 44.054375 288.2975 44.054375 289.8125 44.875 C295.54306843 47.2781416 302.21336452 47.25944033 308.15234375 45.59375 C314.09965881 42.94542545 318.18407013 38.42931546 321.125 32.6875 C322.45404259 27.9754399 322.94525441 23.29395431 323.12890625 18.4140625 C323.17080078 17.35058594 323.21269531 16.28710938 323.25585938 15.19140625 C323.31483398 13.54978516 323.31483398 13.54978516 323.375 11.875 C323.41818359 10.75738281 323.46136719 9.63976562 323.50585938 8.48828125 C323.61147411 5.74229801 323.7135797 2.99623119 323.8125 0.25 C329.45006289 0.15029479 335.0871 0.07814033 340.7253418 0.03027344 C342.63884434 0.01029581 344.55228692 -0.01689599 346.46557617 -0.05175781 C361.50073228 -0.31863085 373.39291144 0.34850241 384.8125 11.25 C394.55021993 21.45050266 396.41552434 32.22101525 396.32043457 45.93798828 C396.32505155 47.3998279 396.33140979 48.86166286 396.33934355 50.32348824 C396.35595081 54.31368394 396.34783007 58.30349409 396.33539867 62.29369068 C396.32631501 66.60733894 396.34033429 70.92092281 396.35131836 75.23455811 C396.36907289 83.67437497 396.36527729 92.11404926 396.3536678 100.55387163 C396.34462166 107.4151784 396.34341458 114.27644532 396.34776306 121.13775635 C396.34837599 122.11556789 396.34898893 123.09337942 396.34962043 124.10082161 C396.35089938 126.08743971 396.35219623 128.07405779 396.3535108 130.06067586 C396.36490761 148.67422233 396.35181699 167.2876899 396.33030933 185.90122342 C396.31243917 201.86062074 396.31554353 217.81990166 396.33398438 233.77929688 C396.35540696 252.32779544 396.36380906 270.87622491 396.35153532 289.42473412 C396.35026117 291.40390395 396.34900369 293.3830738 396.34776306 295.36224365 C396.34683741 296.82279716 396.34683741 296.82279716 396.34589306 298.31285679 C396.34244432 305.1631983 396.34825822 312.01349586 396.35768127 318.86383057 C396.36891806 327.21602156 396.36582594 335.56806226 396.3445583 343.92023611 C396.33407046 348.17886976 396.32988721 352.4372531 396.34315491 356.6958847 C396.35513188 360.5993548 396.34842975 364.50234413 396.3272447 368.40577102 C396.32280097 369.81275707 396.32499443 371.21978429 396.33474785 372.62674356 C396.41763872 385.5847002 393.91442523 395.71550802 384.8125 405.25 C374.25879617 415.32489685 362.97749076 416.84714804 348.90966797 416.75793457 C347.31583526 416.7625503 345.72200682 416.76890772 344.12818718 416.77684355 C339.77315204 416.79346774 335.41846968 416.78532216 331.06343365 416.77289867 C326.35714575 416.76382207 321.65091712 416.77783083 316.94464111 416.78881836 C307.73479712 416.80658035 298.52508372 416.80277393 289.31523466 416.7911678 C281.82845204 416.78212462 274.34170595 416.7809133 266.85491943 416.78526306 C265.25498479 416.78618246 265.25498479 416.78618246 263.62272823 416.78712043 C261.45572614 416.78839937 259.28872405 416.78969622 257.12172198 416.7910108 C236.81425413 416.8024098 216.50685857 416.78931354 196.19940257 416.76780933 C178.78459156 416.74993898 161.36988721 416.75304328 143.95507812 416.77148438 C123.71897438 416.79290308 103.48293395 416.80131123 83.24682045 416.78903532 C81.08790717 416.78776116 78.92899387 416.78650368 76.77008057 416.78526306 C75.17684977 416.78433741 75.17684977 416.78433741 73.55143249 416.78339306 C66.07591915 416.77994316 58.60044607 416.78576073 51.12493896 416.79518127 C42.01151833 416.80641373 32.89823547 416.80333496 23.78483057 416.7820583 C19.13735277 416.77156471 14.49010445 416.76739719 9.84262848 416.78065491 C5.58389158 416.79261971 1.32559576 416.78594929 -2.93310142 416.7647447 C-4.46929292 416.76029589 -6.0055221 416.76250599 -7.54168916 416.77224785 C-20.84412702 416.85010176 -31.33106186 414.65926514 -41.1875 405.25 C-50.92521993 395.04949734 -52.79052434 384.27898475 -52.69543457 370.56201172 C-52.70005155 369.1001721 -52.70640979 367.63833714 -52.71434355 366.17651176 C-52.73095081 362.18631606 -52.72283007 358.19650591 -52.71039867 354.20630932 C-52.70131501 349.89266106 -52.71533429 345.57907719 -52.72631836 341.26544189 C-52.74407289 332.82562503 -52.74027729 324.38595074 -52.7286678 315.94612837 C-52.71962166 309.0848216 -52.71841458 302.22355468 -52.72276306 295.36224365 C-52.72337599 294.38443211 -52.72398893 293.40662058 -52.72462043 292.39917839 C-52.72589938 290.41256029 -52.72719623 288.42594221 -52.7285108 286.43932414 C-52.73990761 267.82577767 -52.72681699 249.2123101 -52.70530933 230.59877658 C-52.68743917 214.63937926 -52.69054353 198.68009834 -52.70898438 182.72070312 C-52.73040696 164.17220456 -52.73880906 145.62377509 -52.72653532 127.07526588 C-52.72526117 125.09609605 -52.72400369 123.1169262 -52.72276306 121.13775635 C-52.72214596 120.16405401 -52.72152886 119.19035167 -52.72089306 118.18714321 C-52.71744432 111.3368017 -52.72325822 104.48650414 -52.73268127 97.63616943 C-52.74391806 89.28397844 -52.74082594 80.93193774 -52.7195583 72.57976389 C-52.70907046 68.32113024 -52.70488721 64.0627469 -52.71815491 59.8041153 C-52.73013188 55.9006452 -52.72342975 51.99765587 -52.7022447 48.09422898 C-52.69780097 46.68724293 -52.69999443 45.28021571 -52.70974785 43.87325644 C-52.79263872 30.9152998 -50.28942523 20.78449198 -41.1875 11.25 C-28.96499334 -0.4179884 -15.94959969 -0.29061583 0 0 Z M85.8125 71.25 C84.39208179 74.09083641 84.49797728 76.10477278 84.8125 79.25 C87.04456431 82.09780619 88.36242999 83.09997666 91.8125 84.25 C93.94228831 84.34817514 96.07506458 84.38501821 98.20710754 84.39044189 C98.8588058 84.39341302 99.51050406 84.39638414 100.18195075 84.3994453 C102.36976723 84.4081298 104.55752897 84.40964033 106.74536133 84.41113281 C108.31240455 84.41576117 109.87944665 84.42078585 111.44648743 84.42617798 C115.70690692 84.4393024 119.96731065 84.44574703 124.2277472 84.45018864 C126.88937419 84.45311932 129.55099687 84.45722413 132.21262169 84.46169281 C140.53988907 84.47536791 148.86714661 84.48503448 157.19442445 84.4888947 C166.80767246 84.4933755 176.42077828 84.51092433 186.03398305 84.5398953 C193.4642274 84.56151041 200.89443175 84.57159889 208.32470721 84.57293582 C212.76268299 84.57398398 217.20052511 84.57989409 221.63846779 84.59775543 C225.81388397 84.61423316 229.98906599 84.61639312 234.1645031 84.60761642 C235.69553377 84.60684589 237.22657702 84.61119103 238.75757599 84.62107468 C240.85097606 84.63379458 242.94354681 84.62791803 245.03694153 84.61749268 C246.79264324 84.61969252 246.79264324 84.61969252 248.58381367 84.6219368 C252.25028219 84.19956856 254.66976787 83.15780746 257.8125 81.25 C259.23291821 78.40916359 259.12702272 76.39522722 258.8125 73.25 C256.58043569 70.40219381 255.26257001 69.40002334 251.8125 68.25 C249.68271169 68.15182486 247.54993542 68.11498179 245.41789246 68.10955811 C244.7661942 68.10658698 244.11449594 68.10361586 243.44304925 68.1005547 C241.25523277 68.0918702 239.06747103 68.09035967 236.87963867 68.08886719 C235.31259545 68.08423883 233.74555335 68.07921415 232.17851257 68.07382202 C227.91809308 68.0606976 223.65768935 68.05425297 219.3972528 68.04981136 C216.73562581 68.04688068 214.07400313 68.04277587 211.41237831 68.03830719 C203.08511093 68.02463209 194.75785339 68.01496552 186.43057555 68.0111053 C176.81732754 68.0066245 167.20422172 67.98907567 157.59101695 67.9601047 C150.1607726 67.93848959 142.73056825 67.92840111 135.30029279 67.92706418 C130.86231701 67.92601602 126.42447489 67.92010591 121.98653221 67.90224457 C117.81111603 67.88576684 113.63593401 67.88360688 109.4604969 67.89238358 C107.92946623 67.89315411 106.39842298 67.88880897 104.86742401 67.87892532 C102.77402394 67.86620542 100.68145319 67.87208197 98.58805847 67.88250732 C96.83235676 67.88030748 96.83235676 67.88030748 95.04118633 67.8780632 C91.37471781 68.30043144 88.95523213 69.34219254 85.8125 71.25 Z M-36.1875 128.25 C-36.22875 168.984375 -36.27 209.71875 -36.3125 251.6875 C-36.33070801 264.55290771 -36.34891602 277.41831543 -36.36767578 290.67358398 C-36.37436435 302.1987986 -36.37436435 302.1987986 -36.37838745 313.72401428 C-36.3802519 318.86030021 -36.38758566 323.9965546 -36.39865112 329.13282776 C-36.41274665 335.68528099 -36.41648181 342.23768604 -36.41364455 348.79015744 C-36.41423783 351.19439566 -36.41820225 353.59863598 -36.42593026 356.00286186 C-36.4358913 359.25287369 -36.43347498 362.50265301 -36.42800903 365.75267029 C-36.43383436 366.69113832 -36.43965969 367.62960634 -36.44566154 368.59651279 C-36.40363784 377.90599902 -35.43428175 386.04069526 -28.546875 392.87890625 C-21.64690148 399.10388236 -14.922052 400.3728031 -5.72716045 400.37863445 C-4.43887488 400.3818589 -3.15058931 400.38508335 -1.82326478 400.3884055 C-0.40078706 400.38693449 1.02169057 400.38536678 2.44416809 400.38371277 C3.9608593 400.38558152 5.47755002 400.38788248 6.99423999 400.39057809 C11.15909304 400.39669454 15.32392601 400.39656268 19.48878253 400.39538372 C23.98173687 400.39517967 28.47468477 400.40069883 32.96763611 400.40544128 C41.76904298 400.41374751 50.57044316 400.41649611 59.37185363 400.41705366 C66.52600181 400.41752883 73.68014779 400.41958361 80.83429527 400.42275429 C101.11746699 400.43156073 121.40063341 400.43617367 141.68380705 400.43542381 C143.32399322 400.43536388 143.32399322 400.43536388 144.99731445 400.43530273 C146.09210689 400.43526185 147.18689932 400.43522097 148.31486728 400.43517885 C166.05902998 400.43477237 183.80317147 400.44434252 201.54732803 400.4584411 C219.76675289 400.47280309 237.98616739 400.47971138 256.20559806 400.47884732 C266.43448164 400.4785153 276.66334297 400.48126492 286.89222145 400.49202538 C295.6010075 400.50112803 304.30976121 400.50330755 313.01854996 400.49651595 C317.46113882 400.49324959 321.90366565 400.49319829 326.34624863 400.5018692 C330.41559816 400.50972991 334.48483641 400.50830715 338.55418321 400.49958507 C340.02387212 400.49804914 341.49356933 400.49986975 342.96324847 400.50544515 C357.83695844 400.73495187 357.83695844 400.73495187 370.8125 394.25 C379.16479626 385.83761527 379.96800304 377.57634597 379.93275452 366.11343384 C379.93361053 365.09803528 379.93446655 364.08263672 379.93534851 363.03646851 C379.93700291 359.62536867 379.93148131 356.214318 379.92602539 352.80322266 C379.92571905 350.31943959 379.92585255 347.83565643 379.92639065 345.3518734 C379.9265936 339.37237866 379.92230961 333.39290293 379.91588932 327.41341295 C379.90868382 320.49525253 379.90789427 313.57709963 379.90710449 306.65893555 C379.90185609 288.39762132 379.88789496 270.13631043 379.875 251.875 C379.854375 211.07875 379.83375 170.2825 379.8125 128.25 C242.5325 128.25 105.2525 128.25 -36.1875 128.25 Z " fill="#2A8CFF" transform="translate(84.1875,63.75)"/>
<path d="M0 0 C0.95390625 -0.0038269 1.9078125 -0.00765381 2.890625 -0.01159668 C4.90105245 -0.01431036 6.91151553 -0.00698737 8.921875 0.00976562 C11.99038787 0.03118291 15.05655952 0.00994534 18.125 -0.015625 C20.08333848 -0.01298163 22.0416755 -0.00785645 24 0 C25.36898437 -0.01214539 25.36898437 -0.01214539 26.765625 -0.02453613 C32.32079872 0.056806 35.69337704 0.68925526 40 4.53125 C44.54282076 9.62345276 44.58891916 14.03098908 44.53125 20.53125 C44.53699036 21.96210938 44.53699036 21.96210938 44.54284668 23.421875 C44.54556036 25.43230245 44.53823737 27.44276553 44.52148438 29.453125 C44.50006709 32.52163787 44.52130466 35.58780952 44.546875 38.65625 C44.54423163 40.61458848 44.53910645 42.5729255 44.53125 44.53125 C44.53934692 45.44390625 44.54744385 46.3565625 44.55578613 47.296875 C44.474444 52.85204872 43.84199474 56.22462704 40 60.53125 C34.90779724 65.07407076 30.50026092 65.12016916 24 65.0625 C22.56914062 65.06824036 22.56914062 65.06824036 21.109375 65.07409668 C19.09894755 65.07681036 17.08848447 65.06948737 15.078125 65.05273438 C12.00961213 65.03131709 8.94344048 65.05255466 5.875 65.078125 C3.91666152 65.07548163 1.9583245 65.07035645 0 65.0625 C-0.91265625 65.07059692 -1.8253125 65.07869385 -2.765625 65.08703613 C-8.32079872 65.005694 -11.69337704 64.37324474 -16 60.53125 C-20.54282076 55.43904724 -20.58891916 51.03151092 -20.53125 44.53125 C-20.5350769 43.57734375 -20.53890381 42.6234375 -20.54284668 41.640625 C-20.54556036 39.63019755 -20.53823737 37.61973447 -20.52148438 35.609375 C-20.50006709 32.54086213 -20.52130466 29.47469048 -20.546875 26.40625 C-20.54423163 24.44791152 -20.53910645 22.4895745 -20.53125 20.53125 C-20.53934692 19.61859375 -20.54744385 18.7059375 -20.55578613 17.765625 C-20.474444 12.21045128 -19.84199474 8.83787296 -16 4.53125 C-10.90779724 -0.01157076 -6.50026092 -0.05766916 0 0 Z " fill="#4867FF" transform="translate(400,375.46875)"/>
<path d="M0 0 C0.95390625 -0.0038269 1.9078125 -0.00765381 2.890625 -0.01159668 C4.90105245 -0.01431036 6.91151553 -0.00698737 8.921875 0.00976562 C11.99038787 0.03118291 15.05655952 0.00994534 18.125 -0.015625 C20.08333848 -0.01298163 22.0416755 -0.00785645 24 0 C25.36898437 -0.01214539 25.36898437 -0.01214539 26.765625 -0.02453613 C32.32079872 0.056806 35.69337704 0.68925526 40 4.53125 C44.54282076 9.62345276 44.58891916 14.03098908 44.53125 20.53125 C44.53699036 21.96210938 44.53699036 21.96210938 44.54284668 23.421875 C44.54556036 25.43230245 44.53823737 27.44276553 44.52148438 29.453125 C44.50006709 32.52163787 44.52130466 35.58780952 44.546875 38.65625 C44.54423163 40.61458848 44.53910645 42.5729255 44.53125 44.53125 C44.53934692 45.44390625 44.54744385 46.3565625 44.55578613 47.296875 C44.474444 52.85204872 43.84199474 56.22462704 40 60.53125 C34.90779724 65.07407076 30.50026092 65.12016916 24 65.0625 C22.56914062 65.06824036 22.56914062 65.06824036 21.109375 65.07409668 C19.09894755 65.07681036 17.08848447 65.06948737 15.078125 65.05273438 C12.00961213 65.03131709 8.94344048 65.05255466 5.875 65.078125 C3.91666152 65.07548163 1.9583245 65.07035645 0 65.0625 C-0.91265625 65.07059692 -1.8253125 65.07869385 -2.765625 65.08703613 C-8.32079872 65.005694 -11.69337704 64.37324474 -16 60.53125 C-20.54282076 55.43904724 -20.58891916 51.03151092 -20.53125 44.53125 C-20.5350769 43.57734375 -20.53890381 42.6234375 -20.54284668 41.640625 C-20.54556036 39.63019755 -20.53823737 37.61973447 -20.52148438 35.609375 C-20.50006709 32.54086213 -20.52130466 29.47469048 -20.546875 26.40625 C-20.54423163 24.44791152 -20.53910645 22.4895745 -20.53125 20.53125 C-20.53934692 19.61859375 -20.54744385 18.7059375 -20.55578613 17.765625 C-20.474444 12.21045128 -19.84199474 8.83787296 -16 4.53125 C-10.90779724 -0.01157076 -6.50026092 -0.05766916 0 0 Z " fill="#347FFF" transform="translate(296,375.46875)"/>
<path d="M0 0 C0.95390625 -0.0038269 1.9078125 -0.00765381 2.890625 -0.01159668 C4.90105245 -0.01431036 6.91151553 -0.00698737 8.921875 0.00976562 C11.99038787 0.03118291 15.05655952 0.00994534 18.125 -0.015625 C20.08333848 -0.01298163 22.0416755 -0.00785645 24 0 C25.36898437 -0.01214539 25.36898437 -0.01214539 26.765625 -0.02453613 C32.32079872 0.056806 35.69337704 0.68925526 40 4.53125 C44.54282076 9.62345276 44.58891916 14.03098908 44.53125 20.53125 C44.53699036 21.96210938 44.53699036 21.96210938 44.54284668 23.421875 C44.54556036 25.43230245 44.53823737 27.44276553 44.52148438 29.453125 C44.50006709 32.52163787 44.52130466 35.58780952 44.546875 38.65625 C44.54423163 40.61458848 44.53910645 42.5729255 44.53125 44.53125 C44.53934692 45.44390625 44.54744385 46.3565625 44.55578613 47.296875 C44.474444 52.85204872 43.84199474 56.22462704 40 60.53125 C34.90779724 65.07407076 30.50026092 65.12016916 24 65.0625 C22.56914062 65.06824036 22.56914062 65.06824036 21.109375 65.07409668 C19.09894755 65.07681036 17.08848447 65.06948737 15.078125 65.05273438 C12.00961213 65.03131709 8.94344048 65.05255466 5.875 65.078125 C3.91666152 65.07548163 1.9583245 65.07035645 0 65.0625 C-0.91265625 65.07059692 -1.8253125 65.07869385 -2.765625 65.08703613 C-8.32079872 65.005694 -11.69337704 64.37324474 -16 60.53125 C-20.54282076 55.43904724 -20.58891916 51.03151092 -20.53125 44.53125 C-20.5350769 43.57734375 -20.53890381 42.6234375 -20.54284668 41.640625 C-20.54556036 39.63019755 -20.53823737 37.61973447 -20.52148438 35.609375 C-20.50006709 32.54086213 -20.52130466 29.47469048 -20.546875 26.40625 C-20.54423163 24.44791152 -20.53910645 22.4895745 -20.53125 20.53125 C-20.53934692 19.61859375 -20.54744385 18.7059375 -20.55578613 17.765625 C-20.474444 12.21045128 -19.84199474 8.83787296 -16 4.53125 C-10.90779724 -0.01157076 -6.50026092 -0.05766916 0 0 Z " fill="#2098FF" transform="translate(192,375.46875)"/>
<path d="M0 0 C0.95390625 -0.0038269 1.9078125 -0.00765381 2.890625 -0.01159668 C4.90105245 -0.01431036 6.91151553 -0.00698737 8.921875 0.00976562 C11.99038787 0.03118291 15.05655952 0.00994534 18.125 -0.015625 C20.08333848 -0.01298163 22.0416755 -0.00785645 24 0 C25.36898437 -0.01214539 25.36898437 -0.01214539 26.765625 -0.02453613 C32.32079872 0.056806 35.69337704 0.68925526 40 4.53125 C44.54282076 9.62345276 44.58891916 14.03098908 44.53125 20.53125 C44.53699036 21.96210938 44.53699036 21.96210938 44.54284668 23.421875 C44.54556036 25.43230245 44.53823737 27.44276553 44.52148438 29.453125 C44.50006709 32.52163787 44.52130466 35.58780952 44.546875 38.65625 C44.54423163 40.61458848 44.53910645 42.5729255 44.53125 44.53125 C44.53934692 45.44390625 44.54744385 46.3565625 44.55578613 47.296875 C44.474444 52.85204872 43.84199474 56.22462704 40 60.53125 C34.90779724 65.07407076 30.50026092 65.12016916 24 65.0625 C22.56914063 65.06824036 22.56914063 65.06824036 21.109375 65.07409668 C19.09894755 65.07681036 17.08848447 65.06948737 15.078125 65.05273438 C12.00961213 65.03131709 8.94344048 65.05255466 5.875 65.078125 C3.91666152 65.07548163 1.9583245 65.07035645 0 65.0625 C-0.91265625 65.07059692 -1.8253125 65.07869385 -2.765625 65.08703613 C-8.32079872 65.005694 -11.69337704 64.37324474 -16 60.53125 C-20.54282076 55.43904724 -20.58891916 51.03151092 -20.53125 44.53125 C-20.5350769 43.57734375 -20.53890381 42.6234375 -20.54284668 41.640625 C-20.54556036 39.63019755 -20.53823737 37.61973447 -20.52148438 35.609375 C-20.50006709 32.54086213 -20.52130466 29.47469048 -20.546875 26.40625 C-20.54423163 24.44791152 -20.53910645 22.4895745 -20.53125 20.53125 C-20.53934692 19.61859375 -20.54744385 18.7059375 -20.55578613 17.765625 C-20.474444 12.21045128 -19.84199474 8.83787296 -16 4.53125 C-10.90779724 -0.01157076 -6.50026092 -0.05766916 0 0 Z " fill="#0CB0FF" transform="translate(88,375.46875)"/>
<path d="M0 0 C0.95390625 -0.0038269 1.9078125 -0.00765381 2.890625 -0.01159668 C4.90105245 -0.01431036 6.91151553 -0.00698737 8.921875 0.00976562 C11.99038787 0.03118291 15.05655952 0.00994534 18.125 -0.015625 C20.08333848 -0.01298163 22.0416755 -0.00785645 24 0 C25.36898437 -0.01214539 25.36898437 -0.01214539 26.765625 -0.02453613 C32.32079872 0.056806 35.69337704 0.68925526 40 4.53125 C44.54282076 9.62345276 44.58891916 14.03098908 44.53125 20.53125 C44.53699036 21.96210938 44.53699036 21.96210938 44.54284668 23.421875 C44.54556036 25.43230245 44.53823737 27.44276553 44.52148438 29.453125 C44.50006709 32.52163787 44.52130466 35.58780952 44.546875 38.65625 C44.54423163 40.61458848 44.53910645 42.5729255 44.53125 44.53125 C44.53934692 45.44390625 44.54744385 46.3565625 44.55578613 47.296875 C44.474444 52.85204872 43.84199474 56.22462704 40 60.53125 C34.90779724 65.07407076 30.50026092 65.12016916 24 65.0625 C22.56914062 65.06824036 22.56914062 65.06824036 21.109375 65.07409668 C19.09894755 65.07681036 17.08848447 65.06948737 15.078125 65.05273438 C12.00961213 65.03131709 8.94344048 65.05255466 5.875 65.078125 C3.91666152 65.07548163 1.9583245 65.07035645 0 65.0625 C-0.91265625 65.07059692 -1.8253125 65.07869385 -2.765625 65.08703613 C-8.32079872 65.005694 -11.69337704 64.37324474 -16 60.53125 C-20.54282076 55.43904724 -20.58891916 51.03151092 -20.53125 44.53125 C-20.5350769 43.57734375 -20.53890381 42.6234375 -20.54284668 41.640625 C-20.54556036 39.63019755 -20.53823737 37.61973447 -20.52148438 35.609375 C-20.50006709 32.54086213 -20.52130466 29.47469048 -20.546875 26.40625 C-20.54423163 24.44791152 -20.53910645 22.4895745 -20.53125 20.53125 C-20.53934692 19.61859375 -20.54744385 18.7059375 -20.55578613 17.765625 C-20.474444 12.21045128 -19.84199474 8.83787296 -16 4.53125 C-10.90779724 -0.01157076 -6.50026092 -0.05766916 0 0 Z " fill="#347FFF" transform="translate(296,295.46875)"/>
<path d="M0 0 C0.95390625 -0.0038269 1.9078125 -0.00765381 2.890625 -0.01159668 C4.90105245 -0.01431036 6.91151553 -0.00698737 8.921875 0.00976562 C11.99038787 0.03118291 15.05655952 0.00994534 18.125 -0.015625 C20.08333848 -0.01298163 22.0416755 -0.00785645 24 0 C25.36898437 -0.01214539 25.36898437 -0.01214539 26.765625 -0.02453613 C32.32079872 0.056806 35.69337704 0.68925526 40 4.53125 C44.54282076 9.62345276 44.58891916 14.03098908 44.53125 20.53125 C44.53699036 21.96210938 44.53699036 21.96210938 44.54284668 23.421875 C44.54556036 25.43230245 44.53823737 27.44276553 44.52148438 29.453125 C44.50006709 32.52163787 44.52130466 35.58780952 44.546875 38.65625 C44.54423163 40.61458848 44.53910645 42.5729255 44.53125 44.53125 C44.53934692 45.44390625 44.54744385 46.3565625 44.55578613 47.296875 C44.474444 52.85204872 43.84199474 56.22462704 40 60.53125 C34.90779724 65.07407076 30.50026092 65.12016916 24 65.0625 C22.56914062 65.06824036 22.56914062 65.06824036 21.109375 65.07409668 C19.09894755 65.07681036 17.08848447 65.06948737 15.078125 65.05273438 C12.00961213 65.03131709 8.94344048 65.05255466 5.875 65.078125 C3.91666152 65.07548163 1.9583245 65.07035645 0 65.0625 C-0.91265625 65.07059692 -1.8253125 65.07869385 -2.765625 65.08703613 C-8.32079872 65.005694 -11.69337704 64.37324474 -16 60.53125 C-20.54282076 55.43904724 -20.58891916 51.03151092 -20.53125 44.53125 C-20.5350769 43.57734375 -20.53890381 42.6234375 -20.54284668 41.640625 C-20.54556036 39.63019755 -20.53823737 37.61973447 -20.52148438 35.609375 C-20.50006709 32.54086213 -20.52130466 29.47469048 -20.546875 26.40625 C-20.54423163 24.44791152 -20.53910645 22.4895745 -20.53125 20.53125 C-20.53934692 19.61859375 -20.54744385 18.7059375 -20.55578613 17.765625 C-20.474444 12.21045128 -19.84199474 8.83787296 -16 4.53125 C-10.90779724 -0.01157076 -6.50026092 -0.05766916 0 0 Z " fill="#2098FF" transform="translate(192,295.46875)"/>
<path d="M0 0 C0.95390625 -0.0038269 1.9078125 -0.00765381 2.890625 -0.01159668 C4.90105245 -0.01431036 6.91151553 -0.00698737 8.921875 0.00976562 C11.99038787 0.03118291 15.05655952 0.00994534 18.125 -0.015625 C20.08333848 -0.01298163 22.0416755 -0.00785645 24 0 C25.36898437 -0.01214539 25.36898437 -0.01214539 26.765625 -0.02453613 C32.32079872 0.056806 35.69337704 0.68925526 40 4.53125 C44.54282076 9.62345276 44.58891916 14.03098908 44.53125 20.53125 C44.53699036 21.96210938 44.53699036 21.96210938 44.54284668 23.421875 C44.54556036 25.43230245 44.53823737 27.44276553 44.52148438 29.453125 C44.50006709 32.52163787 44.52130466 35.58780952 44.546875 38.65625 C44.54423163 40.61458848 44.53910645 42.5729255 44.53125 44.53125 C44.53934692 45.44390625 44.54744385 46.3565625 44.55578613 47.296875 C44.474444 52.85204872 43.84199474 56.22462704 40 60.53125 C34.90779724 65.07407076 30.50026092 65.12016916 24 65.0625 C22.56914063 65.06824036 22.56914063 65.06824036 21.109375 65.07409668 C19.09894755 65.07681036 17.08848447 65.06948737 15.078125 65.05273438 C12.00961213 65.03131709 8.94344048 65.05255466 5.875 65.078125 C3.91666152 65.07548163 1.9583245 65.07035645 0 65.0625 C-0.91265625 65.07059692 -1.8253125 65.07869385 -2.765625 65.08703613 C-8.32079872 65.005694 -11.69337704 64.37324474 -16 60.53125 C-20.54282076 55.43904724 -20.58891916 51.03151092 -20.53125 44.53125 C-20.5350769 43.57734375 -20.53890381 42.6234375 -20.54284668 41.640625 C-20.54556036 39.63019755 -20.53823737 37.61973447 -20.52148438 35.609375 C-20.50006709 32.54086213 -20.52130466 29.47469048 -20.546875 26.40625 C-20.54423163 24.44791152 -20.53910645 22.4895745 -20.53125 20.53125 C-20.53934692 19.61859375 -20.54744385 18.7059375 -20.55578613 17.765625 C-20.474444 12.21045128 -19.84199474 8.83787296 -16 4.53125 C-10.90779724 -0.01157076 -6.50026092 -0.05766916 0 0 Z " fill="#0CB0FF" transform="translate(88,295.46875)"/>
<path d="M0 0 C0.95390625 -0.0038269 1.9078125 -0.00765381 2.890625 -0.01159668 C4.90105245 -0.01431036 6.91151553 -0.00698737 8.921875 0.00976562 C11.99038787 0.03118291 15.05655952 0.00994534 18.125 -0.015625 C20.08333848 -0.01298163 22.0416755 -0.00785645 24 0 C25.36898437 -0.01214539 25.36898437 -0.01214539 26.765625 -0.02453613 C32.32079872 0.056806 35.69337704 0.68925526 40 4.53125 C44.54282076 9.62345276 44.58891916 14.03098908 44.53125 20.53125 C44.53699036 21.96210938 44.53699036 21.96210938 44.54284668 23.421875 C44.54556036 25.43230245 44.53823737 27.44276553 44.52148438 29.453125 C44.50006709 32.52163787 44.52130466 35.58780952 44.546875 38.65625 C44.54423163 40.61458848 44.53910645 42.5729255 44.53125 44.53125 C44.53934692 45.44390625 44.54744385 46.3565625 44.55578613 47.296875 C44.474444 52.85204872 43.84199474 56.22462704 40 60.53125 C34.90779724 65.07407076 30.50026092 65.12016916 24 65.0625 C22.56914062 65.06824036 22.56914062 65.06824036 21.109375 65.07409668 C19.09894755 65.07681036 17.08848447 65.06948737 15.078125 65.05273438 C12.00961213 65.03131709 8.94344048 65.05255466 5.875 65.078125 C3.91666152 65.07548163 1.9583245 65.07035645 0 65.0625 C-0.91265625 65.07059692 -1.8253125 65.07869385 -2.765625 65.08703613 C-8.32079872 65.005694 -11.69337704 64.37324474 -16 60.53125 C-20.54282076 55.43904724 -20.58891916 51.03151092 -20.53125 44.53125 C-20.5350769 43.57734375 -20.53890381 42.6234375 -20.54284668 41.640625 C-20.54556036 39.63019755 -20.53823737 37.61973447 -20.52148438 35.609375 C-20.50006709 32.54086213 -20.52130466 29.47469048 -20.546875 26.40625 C-20.54423163 24.44791152 -20.53910645 22.4895745 -20.53125 20.53125 C-20.53934692 19.61859375 -20.54744385 18.7059375 -20.55578613 17.765625 C-20.474444 12.21045128 -19.84199474 8.83787296 -16 4.53125 C-10.90779724 -0.01157076 -6.50026092 -0.05766916 0 0 Z " fill="#2098FF" transform="translate(192,215.46875)"/>
<path d="M0 0 C0.95390625 -0.0038269 1.9078125 -0.00765381 2.890625 -0.01159668 C4.90105245 -0.01431036 6.91151553 -0.00698737 8.921875 0.00976562 C11.99038787 0.03118291 15.05655952 0.00994534 18.125 -0.015625 C20.08333848 -0.01298163 22.0416755 -0.00785645 24 0 C25.36898437 -0.01214539 25.36898437 -0.01214539 26.765625 -0.02453613 C32.32079872 0.056806 35.69337704 0.68925526 40 4.53125 C44.54282076 9.62345276 44.58891916 14.03098908 44.53125 20.53125 C44.53699036 21.96210938 44.53699036 21.96210938 44.54284668 23.421875 C44.54556036 25.43230245 44.53823737 27.44276553 44.52148438 29.453125 C44.50006709 32.52163787 44.52130466 35.58780952 44.546875 38.65625 C44.54423163 40.61458848 44.53910645 42.5729255 44.53125 44.53125 C44.53934692 45.44390625 44.54744385 46.3565625 44.55578613 47.296875 C44.474444 52.85204872 43.84199474 56.22462704 40 60.53125 C34.90779724 65.07407076 30.50026092 65.12016916 24 65.0625 C22.56914063 65.06824036 22.56914063 65.06824036 21.109375 65.07409668 C19.09894755 65.07681036 17.08848447 65.06948737 15.078125 65.05273438 C12.00961213 65.03131709 8.94344048 65.05255466 5.875 65.078125 C3.91666152 65.07548163 1.9583245 65.07035645 0 65.0625 C-0.91265625 65.07059692 -1.8253125 65.07869385 -2.765625 65.08703613 C-8.32079872 65.005694 -11.69337704 64.37324474 -16 60.53125 C-20.54282076 55.43904724 -20.58891916 51.03151092 -20.53125 44.53125 C-20.5350769 43.57734375 -20.53890381 42.6234375 -20.54284668 41.640625 C-20.54556036 39.63019755 -20.53823737 37.61973447 -20.52148438 35.609375 C-20.50006709 32.54086213 -20.52130466 29.47469048 -20.546875 26.40625 C-20.54423163 24.44791152 -20.53910645 22.4895745 -20.53125 20.53125 C-20.53934692 19.61859375 -20.54744385 18.7059375 -20.55578613 17.765625 C-20.474444 12.21045128 -19.84199474 8.83787296 -16 4.53125 C-10.90779724 -0.01157076 -6.50026092 -0.05766916 0 0 Z " fill="#0CB0FF" transform="translate(88,215.46875)"/>
<path d="M0 0 C0.66 -0.0103125 1.32 -0.020625 2 -0.03125 C4.9192339 0.7441715 6.09362068 2.18867521 8 4.5 C8.50793457 7.08007812 8.50793457 7.08007812 8.51757812 10.03125 C8.53018677 11.13919922 8.54279541 12.24714844 8.55578613 13.38867188 C8.54768921 14.58041016 8.53959229 15.77214844 8.53125 17 C8.5350769 18.22783203 8.53890381 19.45566406 8.54284668 20.72070312 C8.54556842 23.31641459 8.53818911 25.91215336 8.52148438 28.5078125 C8.50008075 32.48499599 8.52127963 36.46037282 8.546875 40.4375 C8.54423177 42.95833733 8.53910691 45.47917353 8.53125 48 C8.53934692 49.19173828 8.54744385 50.38347656 8.55578613 51.61132812 C8.54317749 52.71927734 8.53056885 53.82722656 8.51757812 54.96875 C8.51280457 56.42958008 8.51280457 56.42958008 8.50793457 57.91992188 C7.85796634 61.22146681 6.58462403 62.41577655 4 64.5 C2 65.03125 2 65.03125 0 65 C-0.66 65.0103125 -1.32 65.020625 -2 65.03125 C-4.9192339 64.2558285 -6.09362068 62.81132479 -8 60.5 C-8.50793457 57.91992188 -8.50793457 57.91992188 -8.51757812 54.96875 C-8.53018677 53.86080078 -8.54279541 52.75285156 -8.55578613 51.61132812 C-8.54768921 50.41958984 -8.53959229 49.22785156 -8.53125 48 C-8.5350769 46.77216797 -8.53890381 45.54433594 -8.54284668 44.27929688 C-8.54556842 41.68358541 -8.53818911 39.08784664 -8.52148438 36.4921875 C-8.50008075 32.51500401 -8.52127963 28.53962718 -8.546875 24.5625 C-8.54423177 22.04166267 -8.53910691 19.52082647 -8.53125 17 C-8.53934692 15.80826172 -8.54744385 14.61652344 -8.55578613 13.38867188 C-8.54317749 12.28072266 -8.53056885 11.17277344 -8.51757812 10.03125 C-8.51439575 9.05736328 -8.51121338 8.08347656 -8.50793457 7.08007812 C-7.60624909 2.49992327 -4.66382617 -0.07287228 0 0 Z " fill="#426EFF" transform="translate(384,31.5)"/>
<path d="M0 0 C0.66 -0.0103125 1.32 -0.020625 2 -0.03125 C4.9192339 0.7441715 6.09362068 2.18867521 8 4.5 C8.50793457 7.08007812 8.50793457 7.08007812 8.51757812 10.03125 C8.53018677 11.13919922 8.54279541 12.24714844 8.55578613 13.38867188 C8.54768921 14.58041016 8.53959229 15.77214844 8.53125 17 C8.5350769 18.22783203 8.53890381 19.45566406 8.54284668 20.72070312 C8.54556842 23.31641459 8.53818911 25.91215336 8.52148438 28.5078125 C8.50008075 32.48499599 8.52127963 36.46037282 8.546875 40.4375 C8.54423177 42.95833733 8.53910691 45.47917353 8.53125 48 C8.53934692 49.19173828 8.54744385 50.38347656 8.55578613 51.61132812 C8.54317749 52.71927734 8.53056885 53.82722656 8.51757812 54.96875 C8.51280457 56.42958008 8.51280457 56.42958008 8.50793457 57.91992188 C7.85796634 61.22146681 6.58462403 62.41577655 4 64.5 C2 65.03125 2 65.03125 0 65 C-0.66 65.0103125 -1.32 65.020625 -2 65.03125 C-4.9192339 64.2558285 -6.09362068 62.81132479 -8 60.5 C-8.50793457 57.91992188 -8.50793457 57.91992188 -8.51757812 54.96875 C-8.53018677 53.86080078 -8.54279541 52.75285156 -8.55578613 51.61132812 C-8.54768921 50.41958984 -8.53959229 49.22785156 -8.53125 48 C-8.5350769 46.77216797 -8.53890381 45.54433594 -8.54284668 44.27929688 C-8.54556842 41.68358541 -8.53818911 39.08784664 -8.52148438 36.4921875 C-8.50008075 32.51500401 -8.52127963 28.53962718 -8.546875 24.5625 C-8.54423177 22.04166267 -8.53910691 19.52082647 -8.53125 17 C-8.53934692 15.80826172 -8.54744385 14.61652344 -8.55578613 13.38867188 C-8.54317749 12.28072266 -8.53056885 11.17277344 -8.51757812 10.03125 C-8.51439575 9.05736328 -8.51121338 8.08347656 -8.50793457 7.08007812 C-7.60624909 2.49992327 -4.66382617 -0.07287228 0 0 Z " fill="#2A8BFF" transform="translate(256,31.5)"/>
<path d="M0 0 C0.66 -0.0103125 1.32 -0.020625 2 -0.03125 C4.9192339 0.7441715 6.09362068 2.18867521 8 4.5 C8.50793457 7.08007812 8.50793457 7.08007812 8.51757812 10.03125 C8.53018677 11.13919922 8.54279541 12.24714844 8.55578613 13.38867188 C8.54768921 14.58041016 8.53959229 15.77214844 8.53125 17 C8.5350769 18.22783203 8.53890381 19.45566406 8.54284668 20.72070312 C8.54556842 23.31641459 8.53818911 25.91215336 8.52148438 28.5078125 C8.50008075 32.48499599 8.52127963 36.46037282 8.546875 40.4375 C8.54423177 42.95833733 8.53910691 45.47917353 8.53125 48 C8.53934692 49.19173828 8.54744385 50.38347656 8.55578613 51.61132812 C8.54317749 52.71927734 8.53056885 53.82722656 8.51757812 54.96875 C8.51280457 56.42958008 8.51280457 56.42958008 8.50793457 57.91992188 C7.85796634 61.22146681 6.58462403 62.41577655 4 64.5 C2 65.03125 2 65.03125 0 65 C-0.66 65.0103125 -1.32 65.020625 -2 65.03125 C-4.9192339 64.2558285 -6.09362068 62.81132479 -8 60.5 C-8.50793457 57.91992188 -8.50793457 57.91992188 -8.51757812 54.96875 C-8.53018677 53.86080078 -8.54279541 52.75285156 -8.55578613 51.61132812 C-8.54768921 50.41958984 -8.53959229 49.22785156 -8.53125 48 C-8.5350769 46.77216797 -8.53890381 45.54433594 -8.54284668 44.27929688 C-8.54556842 41.68358541 -8.53818911 39.08784664 -8.52148438 36.4921875 C-8.50008075 32.51500401 -8.52127963 28.53962718 -8.546875 24.5625 C-8.54423177 22.04166267 -8.53910691 19.52082647 -8.53125 17 C-8.53934692 15.80826172 -8.54744385 14.61652344 -8.55578613 13.38867188 C-8.54317749 12.28072266 -8.53056885 11.17277344 -8.51757812 10.03125 C-8.51439575 9.05736328 -8.51121338 8.08347656 -8.50793457 7.08007812 C-7.60624909 2.49992327 -4.66382617 -0.07287228 0 0 Z " fill="#12A9FF" transform="translate(128,31.5)"/>
</svg>
