<?xml version="1.0" encoding="UTF-8"?>
<svg version="1.1" xmlns="http://www.w3.org/2000/svg" width="512" height="512">
<path d="M0 0 C1.30661087 0.00273422 1.30661087 0.00273422 2.63961792 0.00552368 C16.729049 0.05495011 30.49327416 0.72857479 44.375 3.3125 C45.80851807 3.57788574 45.80851807 3.57788574 47.27099609 3.84863281 C109.01490628 15.64527495 168.26585064 49.71311136 205.375 101.3125 C205.85340332 101.96250977 206.33180664 102.61251953 206.82470703 103.28222656 C229.31000989 133.83455536 244.06838279 167.34699118 252.375 204.3125 C252.71821289 205.80910156 252.71821289 205.80910156 253.06835938 207.3359375 C259.95522212 238.9519351 259.69732067 276.81489839 252.375 308.3125 C252.15537598 309.31587402 251.93575195 310.31924805 251.70947266 311.35302734 C245.30323268 340.3919283 234.51286584 368.25127053 218.375 393.3125 C217.94751465 393.97652832 217.5200293 394.64055664 217.07958984 395.32470703 C207.24007407 410.42849133 195.81073038 424.28193648 183.375 437.3125 C182.54355469 438.18519531 181.71210938 439.05789063 180.85546875 439.95703125 C175.05706632 445.90153516 168.90154823 451.18638519 162.375 456.3125 C161.38886719 457.10398437 160.40273438 457.89546875 159.38671875 458.7109375 C125.10328497 485.77905334 84.47489593 503.33327823 41.375 510.3125 C40.36679199 510.48910156 39.35858398 510.66570312 38.31982422 510.84765625 C26.12755109 512.75936644 13.93983528 512.71062047 1.625 512.6875 C-0.07825439 512.68618576 -0.07825439 512.68618576 -1.81591797 512.68484497 C-18.74556903 512.64170887 -35.05645824 512.09905854 -51.625 508.3125 C-52.73584961 508.06580566 -53.84669922 507.81911133 -54.99121094 507.56494141 C-93.5928721 498.7947732 -128.60655707 481.84834191 -159.625 457.3125 C-160.1622168 456.89242676 -160.69943359 456.47235352 -161.25292969 456.03955078 C-176.07738678 444.35444537 -190.38995085 430.49947252 -201.625 415.3125 C-202.09921387 414.68762695 -202.57342773 414.06275391 -203.06201172 413.41894531 C-230.99684525 376.55560036 -248.92751901 333.25213693 -254.625 287.3125 C-254.72071289 286.54542725 -254.81642578 285.77835449 -254.91503906 284.98803711 C-255.91186838 275.72806445 -255.86864144 266.42779455 -255.875 257.125 C-255.87567474 256.23644318 -255.87634949 255.34788635 -255.87704468 254.43240356 C-255.85991001 240.19413325 -255.19832576 226.34696383 -252.625 212.3125 C-252.46402832 211.39404297 -252.30305664 210.47558594 -252.13720703 209.52929688 C-248.07939479 186.96770491 -240.76069618 164.87308387 -230.625 144.3125 C-230.0669165 143.16974609 -230.0669165 143.16974609 -229.49755859 142.00390625 C-221.06008546 124.89721914 -210.67881027 109.08887148 -198.625 94.3125 C-198.17189453 93.75643066 -197.71878906 93.20036133 -197.25195312 92.62744141 C-186.56184133 79.6167395 -174.96344556 67.62733419 -161.625 57.3125 C-160.34851588 56.29612835 -159.07250814 55.27915824 -157.796875 54.26171875 C-147.87621465 46.42489794 -137.63158468 39.5297447 -126.625 33.3125 C-125.75101563 32.81862793 -124.87703125 32.32475586 -123.9765625 31.81591797 C-100.16597744 18.53207351 -74.69800122 9.29841215 -47.9375 4.0625 C-46.78278198 3.83566528 -46.78278198 3.83566528 -45.60473633 3.60424805 C-30.45219201 0.83573923 -15.37298285 -0.06731939 0 0 Z M-81.625 118.3125 C-91.72104896 130.34558161 -97.03056338 144.38211036 -97 160 C-96.99838867 160.86850586 -96.99677734 161.73701172 -96.99511719 162.63183594 C-96.81957302 171.95632901 -94.920733 180.42009733 -90.3125 188.625 C-86.29346203 196.18651017 -90.58772443 205.28556999 -92.78515625 212.95703125 C-93.78686756 216.38272152 -93.78686756 216.38272152 -93.625 220.3125 C-87.29096981 219.53607049 -81.38131303 217.91692575 -75.24609375 216.15234375 C-69.43682412 214.80499427 -65.74754935 214.90169179 -60.4375 217.625 C-45.4742318 224.66653798 -28.94485314 225.97378355 -13.15722656 220.57739258 C3.67333413 214.25410707 15.93722742 203.09406307 23.98046875 187.125 C25.24511466 184.217427 26.35719547 181.31459571 27.375 178.3125 C27.74238281 177.26449219 27.74238281 177.26449219 28.1171875 176.1953125 C32.62582455 160.32243959 29.06021141 142.85093515 21.37890625 128.703125 C13.43879147 115.26838889 2.0067075 105.74348313 -12.625 100.3125 C-13.84509766 99.83490234 -13.84509766 99.83490234 -15.08984375 99.34765625 C-38.51124579 91.51646327 -65.39912063 100.48036747 -81.625 118.3125 Z M13.375 100.3125 C13.03105754 103.46445336 13.03105754 103.46445336 15.5 105.5546875 C16.44875 106.42351562 17.3975 107.29234375 18.375 108.1875 C28.07422544 117.50044542 33.57502755 128.48182378 37.375 141.3125 C37.62121094 142.14007813 37.86742187 142.96765625 38.12109375 143.8203125 C42.49914675 161.63445917 38.76174098 181.33775528 30.375 197.3125 C25.45942487 205.34655828 19.1958239 211.86905775 12.375 218.3125 C13.19649835 220.50137181 13.19649835 220.50137181 15.4296875 221.1640625 C32.0398146 225.71919431 49.37575093 224.60394925 64.51171875 216.203125 C71.61631033 213.9932384 79.50105741 216.95389061 86.4375 218.875 C87.7359082 219.22594727 87.7359082 219.22594727 89.06054688 219.58398438 C91.16697695 220.1542334 93.27122889 220.73251834 95.375 221.3125 C94.44402834 215.6500018 93.37754963 210.13244283 91.75 204.625 C89.35967619 195.91387149 90.11513911 191.47837865 94.0625 183.359375 C100.46953728 168.48589559 99.6930803 152.32602484 94.375 137.3125 C90.54640346 128.28653407 85.32226052 121.1747416 78.375 114.3125 C77.76140625 113.67699219 77.1478125 113.04148437 76.515625 112.38671875 C64.55174067 100.85741996 48.55474162 96.88203428 32.40625 96.94750977 C25.78947195 97.1119969 19.66585227 98.20299265 13.375 100.3125 Z M-28 255.9375 C-34.26320588 264.39409579 -36.8700164 273.86051046 -35.625 284.3125 C-33.63892039 295.21131704 -27.67778239 303.97555232 -18.625 310.3125 C-9.94717452 315.08675515 -0.42374541 317.05045744 9.32421875 314.55859375 C20.91874066 310.52502883 28.19665605 303.79696246 34.375 293.3125 C38.52185775 284.03143741 37.92817988 274.08666276 34.40625 264.7421875 C29.83928935 254.65167309 22.67730695 248.25772452 12.375 244.3125 C-2.55538219 239.72038567 -17.69882439 244.0749632 -28 255.9375 Z M-128.625 271.3125 C-133.72655387 278.69266354 -135.64788988 285.63561443 -134.26953125 294.6328125 C-132.28950201 303.11105851 -127.18253907 308.89818201 -120.3046875 314.05078125 C-113.4611062 318.0598099 -106.37666547 318.42241774 -98.625 317.3125 C-92.50255479 315.32046935 -87.81004906 312.23608713 -83.625 307.3125 C-82.92375 306.590625 -82.2225 305.86875 -81.5 305.125 C-77.61388241 299.29582361 -75.86486457 292.28040807 -76.625 285.3125 C-78.94453138 275.76544329 -83.69553897 269.08468119 -91.625 263.3125 C-104.47095909 255.71197421 -119.29043921 260.92042906 -128.625 271.3125 Z M84.375 270.3125 C78.94226692 278.32307095 76.95387336 285.69826937 78.375 295.3125 C80.31579144 302.68977742 85.0257076 309.54622211 91.5 313.6640625 C99.2561053 317.62766043 107.36996411 318.8251494 115.94921875 316.6640625 C123.9555728 313.39445195 130.15211324 308.02749273 133.68359375 300.109375 C136.32731033 293.23869913 136.60099186 286.0255039 134.28125 279 C129.93621365 269.7552418 124.67058547 264.47818082 115.046875 261.0078125 C103.91550427 258.11105228 91.82019227 261.30943295 84.375 270.3125 Z M-19.125 329.375 C-20.46127857 329.8842987 -21.79803456 330.39234648 -23.13525391 330.89916992 C-25.76842475 331.8999623 -28.39774629 332.91000337 -31.02441406 333.92773438 C-34.10769599 335.11354771 -37.19940184 336.26411976 -40.3046875 337.390625 C-50.49219294 341.11942509 -58.80103444 344.51149378 -64.6171875 354.08984375 C-67.70877026 360.90810186 -67.94485587 367.18143397 -67.9609375 374.57421875 C-67.9675943 375.64243362 -67.9742511 376.7106485 -67.98110962 377.81123352 C-67.99119822 380.05944097 -67.99592782 382.30767814 -67.99560547 384.5559082 C-67.99999918 387.99935608 -68.0364162 391.44154243 -68.07421875 394.88476562 C-68.08008351 397.07291229 -68.08405518 399.26106503 -68.0859375 401.44921875 C-68.10749405 402.99303474 -68.10749405 402.99303474 -68.12948608 404.56803894 C-68.12333282 405.52615982 -68.11717957 406.4842807 -68.11083984 407.47143555 C-68.11368988 408.3119194 -68.11653992 409.15240326 -68.11947632 410.01835632 C-67.43783459 413.18086177 -66.10589848 414.27712008 -63.625 416.3125 C-61.10373018 416.90640937 -61.10373018 416.90640937 -58.31152344 416.81370544 C-56.69642883 416.82845665 -56.69642883 416.82845665 -55.04870605 416.84350586 C-53.87247681 416.83383789 -52.69624756 416.82416992 -51.484375 416.81420898 C-50.24175903 416.81961197 -48.99914307 416.82501495 -47.71887207 416.83058167 C-44.31363809 416.84094715 -40.90937546 416.83336552 -37.50422668 416.81687045 C-33.93998827 416.80301559 -30.37577906 416.80948052 -26.81152344 416.81300354 C-20.82608911 416.81570533 -14.84085535 416.80223291 -8.85546875 416.77905273 C-1.93667082 416.75244303 4.98179176 416.75069592 11.90062332 416.7624411 C18.55777525 416.77322244 25.21480594 416.76702906 31.87194824 416.75288582 C34.70441556 416.74712906 37.53679408 416.74720623 40.3692627 416.75195122 C44.32442909 416.757612 48.27926028 416.73839773 52.234375 416.71655273 C53.41060425 416.72105438 54.5868335 416.72555603 55.79870605 416.73019409 C56.87543579 416.72028946 57.95216553 416.71038483 59.06152344 416.70018005 C59.99655701 416.69775016 60.93159058 416.69532026 61.8949585 416.69281673 C64.84518046 416.24039738 66.22790264 415.35737804 68.375 413.3125 C68.9729207 410.9801993 68.9729207 410.9801993 68.87670898 408.32543945 C68.88608994 407.31040848 68.89547089 406.2953775 68.90513611 405.24958801 C68.89390213 404.15273178 68.88266815 403.05587555 68.87109375 401.92578125 C68.87254898 400.79480515 68.87400421 399.66382904 68.87550354 398.49858093 C68.873842 396.10197377 68.86225249 393.70535623 68.84155273 391.30883789 C68.81274919 387.6565966 68.82090959 384.00582019 68.83398438 380.35351562 C68.82774228 378.02343049 68.81934767 375.69334993 68.80859375 373.36328125 C68.81152939 372.27654617 68.81446503 371.1898111 68.81748962 370.07014465 C68.70664782 361.06247661 67.05006787 353.96737919 60.62695312 347.3112793 C52.42060611 340.02752355 40.02327758 336.70938785 29.88134766 332.93334961 C27.34926215 331.99041537 24.82090127 331.03799014 22.29296875 330.08398438 C20.67468367 329.47601788 19.05620123 328.86857639 17.4375 328.26171875 C16.68645996 327.97946945 15.93541992 327.69722015 15.16162109 327.40641785 C2.27160144 322.61493042 -6.39283381 324.40536346 -19.125 329.375 Z M-118.21875 328.19921875 C-119.00971069 328.49810501 -119.80067139 328.79699127 -120.61560059 329.10493469 C-122.2785488 329.73670364 -123.93905595 330.37493218 -125.59716797 331.01928711 C-128.11214357 331.99501214 -130.63510176 332.94719174 -133.16015625 333.89648438 C-134.78438238 334.51684797 -136.40809822 335.13854957 -138.03125 335.76171875 C-138.77419312 336.04214523 -139.51713623 336.32257172 -140.28259277 336.61149597 C-146.70097511 339.12652061 -154.06355821 342.11176967 -157.5625 348.375 C-157.94277344 349.02597656 -158.32304687 349.67695313 -158.71484375 350.34765625 C-160.25777923 353.67854272 -160.75025013 356.7541223 -160.77026367 360.40673828 C-160.77664352 361.20081085 -160.78302338 361.99488342 -160.78959656 362.8130188 C-160.79070938 363.66105072 -160.7918222 364.50908264 -160.79296875 365.3828125 C-160.79629715 366.26025116 -160.79962555 367.13768982 -160.80305481 368.04171753 C-160.80810926 369.89255246 -160.81046359 371.74339646 -160.81030273 373.59423828 C-160.81249735 376.43406987 -160.83069072 379.27351794 -160.84960938 382.11328125 C-160.85254191 383.911457 -160.85452764 385.7096346 -160.85546875 387.5078125 C-160.86265427 388.35989288 -160.86983978 389.21197327 -160.87724304 390.08987427 C-161.07132564 394.67903427 -161.07132564 394.67903427 -158.625 398.3125 C-156.06508098 398.50034482 -153.6143036 398.56439805 -151.05419922 398.53955078 C-149.88333267 398.53998886 -149.88333267 398.53998886 -148.68881226 398.54043579 C-146.10232522 398.53903968 -143.51612436 398.52346542 -140.9296875 398.5078125 C-139.13892779 398.50408337 -137.34816604 398.50123592 -135.55740356 398.49923706 C-130.83911528 398.49159275 -126.12094969 398.47193745 -121.40270996 398.4498291 C-116.59010478 398.42938782 -111.77747981 398.42023903 -106.96484375 398.41015625 C-97.51817519 398.38869228 -88.07159779 398.35454675 -78.625 398.3125 C-78.61041748 397.34538086 -78.59583496 396.37826172 -78.58081055 395.38183594 C-78.52210148 391.73598303 -78.4448859 388.09070188 -78.36254883 384.4453125 C-78.32963621 382.87835078 -78.30150384 381.31128007 -78.27856445 379.74414062 C-77.85215182 351.36501888 -77.85215182 351.36501888 -67.96875 341.69140625 C-66.39236063 340.394669 -66.39236063 340.394669 -66.625 338.3125 C-71.45668892 336.44404308 -76.29468237 334.5933448 -81.13916016 332.75830078 C-82.7838819 332.1325247 -84.42682747 331.5020583 -86.06787109 330.86669922 C-88.4364828 329.95060592 -90.81111628 329.05195809 -93.1875 328.15625 C-93.91179199 327.87189087 -94.63608398 327.58753174 -95.38232422 327.29455566 C-103.77787822 324.17351571 -109.99036632 324.98129076 -118.21875 328.19921875 Z M93.875 328.4375 C93.00584961 328.75082275 92.13669922 329.06414551 91.24121094 329.38696289 C83.54821074 332.18473808 75.93903483 335.18374014 68.375 338.3125 C69.84713963 342.2472511 71.67731502 345.42555614 74.05859375 348.859375 C77.62864855 355.51217741 78.82583023 362.02613426 78.88671875 369.50390625 C78.90466995 370.33462143 78.92262115 371.16533661 78.94111633 372.02122498 C78.99470918 374.6391004 79.02894879 377.25679904 79.0625 379.875 C79.09571831 381.66473789 79.13021206 383.45445259 79.16601562 385.24414062 C79.25040521 389.60013167 79.31745691 393.95607497 79.375 398.3125 C89.91881312 398.33562343 100.46262025 398.35341509 111.00645351 398.36431217 C115.90185374 398.369541 120.79723668 398.37663864 125.69262695 398.38793945 C130.41287978 398.39876834 135.13311592 398.40477684 139.8533802 398.40737724 C141.65838954 398.40923149 143.46339792 398.41285209 145.26840019 398.41823006 C147.78759644 398.42544052 150.3067229 398.42649094 152.82592773 398.42602539 C153.95664955 398.4314183 153.95664955 398.4314183 155.11021423 398.43692017 C158.53054231 398.73809536 158.53054231 398.73809536 161.375 397.3125 C161.51366077 394.23078826 161.58826071 391.17320311 161.61328125 388.08984375 C161.62538887 386.68878136 161.62538887 386.68878136 161.63774109 385.25941467 C161.6516054 383.27460599 161.66231699 381.28977323 161.67016602 379.30493164 C161.68729119 376.28680085 161.73114516 373.26979041 161.77539062 370.25195312 C161.78552499 368.32292472 161.79403876 366.39388699 161.80078125 364.46484375 C161.82704338 363.12062599 161.82704338 363.12062599 161.85383606 361.74925232 C161.83043809 354.89469471 160.49501098 349.78789685 155.84838867 344.61199951 C151.68919626 340.7556827 147.2325576 338.64245144 141.95703125 336.69921875 C140.78753181 336.24939384 140.78753181 336.24939384 139.59440613 335.79048157 C137.13035557 334.84675633 134.65922009 333.92342284 132.1875 333 C130.51839432 332.36259903 128.84976936 331.72393773 127.18164062 331.08398438 C114.85873702 326.38398454 106.67727782 323.68663543 93.875 328.4375 Z " fill="#55B7DE" transform="translate(255.625,-0.3125)"/>
<path d="M0 0 C12.09113635 -0.0462659 24.18225177 -0.08183989 36.27345848 -0.10362434 C41.8874155 -0.11407784 47.50131212 -0.12826553 53.11523438 -0.15087891 C58.52926861 -0.17255154 63.94324462 -0.18455681 69.35731888 -0.18975449 C71.4266616 -0.1934603 73.49600101 -0.20069644 75.56531906 -0.21146011 C78.45556365 -0.22590091 81.3455652 -0.22798106 84.23583984 -0.22705078 C85.09826797 -0.23424133 85.96069611 -0.24143188 86.84925842 -0.24884033 C92.77189568 -0.22810432 92.77189568 -0.22810432 95 2 C95.25 5 95.25 5 95 8 C92.35746891 10.64253109 90.44436576 10.23625334 86.84925842 10.24884033 C85.55561623 10.2380545 85.55561623 10.2380545 84.23583984 10.22705078 C83.32846573 10.22734283 82.42109161 10.22763489 81.48622131 10.22793579 C78.47769714 10.22653898 75.46941858 10.21096128 72.4609375 10.1953125 C70.37871435 10.19158362 68.29648945 10.18873606 66.21426392 10.18673706 C60.72659483 10.17909077 55.23903116 10.15943375 49.75140381 10.1373291 C44.15459621 10.11689209 38.55777163 10.10773994 32.9609375 10.09765625 C21.97391195 10.07618879 10.98696473 10.04204086 0 10 C-2.21538462 4.58461538 -2.21538462 4.58461538 -1.125 1.625 C-0.75375 1.08875 -0.3825 0.5525 0 0 Z " fill="#55B9DE" transform="translate(175,155)"/>
<path d="M0 0 C12.09113635 -0.0462659 24.18225177 -0.08183989 36.27345848 -0.10362434 C41.8874155 -0.11407784 47.50131212 -0.12826553 53.11523438 -0.15087891 C58.52926861 -0.17255154 63.94324462 -0.18455681 69.35731888 -0.18975449 C71.4266616 -0.1934603 73.49600101 -0.20069644 75.56531906 -0.21146011 C78.45556365 -0.22590091 81.3455652 -0.22798106 84.23583984 -0.22705078 C85.09826797 -0.23424133 85.96069611 -0.24143188 86.84925842 -0.24884033 C92.77189568 -0.22810432 92.77189568 -0.22810432 95 2 C95.25 5 95.25 5 95 8 C92.38177276 10.61822724 90.51219474 10.25389721 86.94604492 10.29327393 C85.67349854 10.29191437 85.67349854 10.29191437 84.37524414 10.29052734 C83.48244247 10.29724457 82.58964081 10.30396179 81.66978455 10.31088257 C78.70818572 10.32993496 75.7468126 10.33379032 72.78515625 10.3359375 C70.73253789 10.34236012 68.67992047 10.34908807 66.62730408 10.35610962 C62.32060625 10.36810032 58.01398874 10.37178857 53.70727539 10.37060547 C48.1808723 10.37040212 42.65498254 10.39771324 37.12870121 10.43214989 C32.88827638 10.4543551 28.64797635 10.45844498 24.40749931 10.45738602 C22.36967638 10.45975127 20.33185048 10.46862639 18.29408455 10.48405075 C15.44707099 10.50358305 12.60118091 10.49792329 9.75415039 10.48583984 C8.90781036 10.49707886 8.06147034 10.50831787 7.18948364 10.51989746 C3.80371637 10.48326414 1.57040804 10.43470307 -1.1721344 8.34463501 C-2.34183907 5.03186234 -1.35817358 3.14524408 0 0 Z " fill="#55B9DD" transform="translate(175,177)"/>
<path d="M0 0 C1.04878578 -0.00262848 1.04878578 -0.00262848 2.11875916 -0.00531006 C4.44125821 -0.00972872 6.76368174 -0.00679024 9.08618164 -0.00341797 C10.6942191 -0.00409108 12.30225647 -0.00506117 13.91029358 -0.00631714 C17.28558315 -0.00779419 20.66084631 -0.0056396 24.03613281 -0.00097656 C28.36860479 0.00471617 32.70101477 0.00144467 37.03348446 -0.00454903 C40.35596689 -0.00815834 43.67843457 -0.00701426 47.00091743 -0.00442123 C48.59855723 -0.00375275 50.19619835 -0.00457765 51.79383659 -0.00690079 C54.02535436 -0.00943286 56.25677104 -0.00557866 58.48828125 0 C59.75989609 0.00079559 61.03151093 0.00159119 62.34165955 0.00241089 C65.30883789 0.12939453 65.30883789 0.12939453 67.30883789 1.12939453 C68.24455195 4.01451289 68.5966063 5.49561888 67.32446289 8.29736328 C66.98930664 8.90193359 66.65415039 9.50650391 66.30883789 10.12939453 C56.8426981 10.22200783 47.37671386 10.29311513 37.91022015 10.33664322 C33.51469121 10.35753287 29.11947184 10.38587519 24.72412109 10.43115234 C20.48363509 10.47456166 16.24344714 10.49852126 12.00275612 10.5089035 C10.38356647 10.51630378 8.76439344 10.5307547 7.14533043 10.55231476 C4.8800549 10.58128478 2.61601641 10.58535342 0.35058594 10.58349609 C-1.58467705 10.59681976 -1.58467705 10.59681976 -3.55903625 10.6104126 C-6.69116211 10.12939453 -6.69116211 10.12939453 -8.67814636 8.26898193 C-9.69116211 6.12939453 -9.69116211 6.12939453 -8.94116211 3.44189453 C-6.6194487 -0.85327528 -4.81562084 0.00301481 0 0 Z " fill="#55BADD" transform="translate(182.691162109375,132.87060546875)"/>
</svg>
