<?xml version="1.0" encoding="UTF-8"?>
<svg version="1.1" xmlns="http://www.w3.org/2000/svg" width="1366" height="768">
<path d="M0 0 C0.90844408 -0.00750224 1.81688816 -0.01500447 2.75286084 -0.02273405 C5.77409457 -0.04393779 8.79493605 -0.043951 11.8162384 -0.04379272 C13.99187314 -0.05441472 16.16750225 -0.06624643 18.34312439 -0.07919312 C24.23798808 -0.10990237 30.13273037 -0.12110725 36.02766585 -0.12683535 C39.71556386 -0.13119698 43.40343069 -0.13957735 47.09131813 -0.14933395 C59.97148364 -0.1830566 72.8515577 -0.20021246 85.73176575 -0.20297241 C97.71468725 -0.20600573 109.69693191 -0.24643948 121.67972964 -0.30412066 C131.98664626 -0.3519774 142.29339284 -0.37270456 152.60041982 -0.37276304 C158.74787017 -0.37329983 164.89481445 -0.38476904 171.0421505 -0.42393875 C176.82825697 -0.45993468 182.61342352 -0.46200565 188.39958572 -0.43876648 C190.51424459 -0.43591863 192.62896 -0.44486317 194.74350548 -0.46694565 C207.57262637 -0.592535 216.59297986 0.4124484 227.54597473 7.40786743 C229.03998338 8.24442263 230.53755166 9.07473671 232.04206848 9.89224243 C233.35640863 10.64651394 234.67020762 11.4017292 235.98347473 12.15786743 C263.0988354 27.45158316 292.31251869 39.94017736 322.60847473 47.28286743 C323.78289124 47.56940186 323.78289124 47.56940186 324.98103333 47.86172485 C338.06057963 50.85781872 351.05612285 51.82095547 364.42097473 51.78286743 C365.56232376 51.78155319 365.56232376 51.78155319 366.72673035 51.7802124 C380.64359798 51.72779175 393.92565008 50.37379817 407.54597473 47.40786743 C408.77783508 47.13990356 410.00969543 46.8719397 411.27888489 46.59585571 C423.87691545 43.82425558 436.45606404 40.88159367 448.88459778 37.42349243 C451.41130559 36.72261196 453.93885036 36.03404002 456.4724884 35.35952759 C467.69503625 32.34452692 478.64663844 28.75447746 489.60847473 24.90786743 C499.3974321 21.48049199 509.17229805 18.15465606 519.14283752 15.29257202 C527.63270902 12.83903294 535.98810187 9.98738645 544.35847473 7.15786743 C546.7705606 6.3445823 549.18295619 5.53224478 551.59594727 4.72164917 C553.07789178 4.22362814 554.55929916 3.72400487 556.04006958 3.22250366 C561.87539933 1.25830745 566.41624847 0.28061203 572.60769653 0.24723816 C573.31923596 0.24215034 574.03077539 0.23706252 574.76387662 0.23182052 C577.14867892 0.21612243 579.53345097 0.20757775 581.91828918 0.1991272 C583.62851146 0.18958611 585.33873181 0.17969483 587.0489502 0.16947937 C592.66902887 0.13810687 598.28912224 0.11782068 603.90925598 0.09927368 C604.86702053 0.09597636 605.82478508 0.09267904 606.81157279 0.0892818 C615.85435797 0.05848792 624.89714659 0.03179422 633.93996906 0.01486301 C645.48173729 -0.00700383 657.02303797 -0.0488868 668.56461936 -0.11857456 C676.69225296 -0.16596905 684.81976116 -0.19009154 692.94752854 -0.19733387 C697.79451266 -0.20226913 702.64096975 -0.21714494 707.48780251 -0.25707817 C712.05739421 -0.29422909 716.62616416 -0.30226207 721.19587898 -0.28907204 C722.86183731 -0.28912553 724.5278347 -0.29923192 726.19365311 -0.32082367 C737.7013297 -0.46185518 746.11620586 1.42123137 756.54597473 6.40786743 C758.71865374 7.38553756 760.89175593 8.36226847 763.06550598 9.33755493 C765.16487178 10.31566482 767.26251308 11.29748401 769.35847473 12.28286743 C776.93215144 15.8149955 784.51443347 19.30903143 792.17097473 22.65786743 C797.6848653 25.07232159 803.06904414 27.65428482 808.42097473 30.40786743 C816.67629061 34.62638415 825.20241687 38.00866701 833.84382629 41.34732056 C836.64120812 42.4452449 839.41809185 43.58592476 842.19441223 44.73599243 C854.80802096 49.91373829 867.18128757 53.74264214 880.54597473 56.40786743 C881.60365051 56.6242688 882.66132629 56.84067017 883.75105286 57.06362915 C898.62503062 60.08019586 913.39149776 62.48819553 928.54597473 63.40786743 C929.53404114 63.4695813 930.52210754 63.53129517 931.54011536 63.59487915 C959.4927326 65.23022004 986.98000119 63.7609027 1014.79597473 61.03286743 C1015.87008606 60.92794983 1016.94419739 60.82303223 1018.05085754 60.7149353 C1029.65778742 59.56760965 1041.22727069 58.28917227 1052.75721741 56.51690674 C1057.36547001 55.81834865 1061.97027745 55.25066184 1066.60711956 54.77248096 C1076.68661714 53.72214424 1086.62550073 52.15115787 1096.60255241 50.38609886 C1099.51532556 49.87095888 1102.42928803 49.36304711 1105.34359741 48.85667419 C1111.55796096 47.77565685 1117.77082186 46.68616721 1123.98347473 45.59536743 C1170.59657537 37.41161933 1170.59657537 37.41161933 1193.37138367 34.2701416 C1205.13337123 32.64310631 1216.857694 30.81119118 1228.58113098 28.92739868 C1229.52303724 28.77630835 1230.4649435 28.62521801 1231.43539238 28.46954918 C1240.1289574 27.07454859 1248.82115988 25.67113881 1257.51301575 24.26553345 C1262.34443121 23.48451716 1267.1765251 22.70780979 1272.00901604 21.9334774 C1274.66902999 21.50590848 1277.3282123 21.07342731 1279.98739624 20.64073181 C1288.1101364 19.33148671 1296.23075262 18.1400503 1304.40705872 17.21524048 C1305.13923394 17.13162923 1305.87140917 17.04801798 1306.62577152 16.96187305 C1310.6561992 16.52867622 1314.46884917 16.40786743 1318.54597473 16.40786743 C1318.54597473 157.31786743 1318.54597473 298.22786743 1318.54597473 443.40786743 C867.76597473 443.40786743 416.98597473 443.40786743 -47.45402527 443.40786743 C-47.45402527 302.16786743 -47.45402527 160.92786743 -47.45402527 15.40786743 C-10.10202816 -0.04813137 -10.10202816 -0.04813137 0 0 Z " fill="#1882D7" transform="translate(47.45402526855469,324.5921325683594)"/>
</svg>
