<?xml version="1.0" encoding="UTF-8"?>
<svg version="1.1" xmlns="http://www.w3.org/2000/svg" width="512" height="512">
<path d="M0 0 C0.94252363 -0.00382555 1.88504726 -0.00765109 2.85613221 -0.01159257 C5.99254018 -0.02185418 9.12876274 -0.01794345 12.2651825 -0.01396179 C14.52287464 -0.01831207 16.7805653 -0.02349628 19.03825378 -0.02944946 C25.15611674 -0.0428173 31.27391783 -0.04342054 37.39179254 -0.04088616 C42.5059236 -0.03981485 47.62004222 -0.04470397 52.73417062 -0.04949158 C65.49309464 -0.06121274 78.25197402 -0.0603661 91.0108976 -0.05393478 C102.06971387 -0.04876823 113.12844198 -0.06001663 124.18724082 -0.07903299 C135.56455942 -0.09844584 146.94182426 -0.10637041 158.31916398 -0.10290974 C164.69776531 -0.10109986 171.07628592 -0.10370362 177.45487404 -0.11762428 C183.45578232 -0.13023107 189.45651466 -0.12823143 195.45742035 -0.11521339 C197.65352883 -0.11285421 199.8496498 -0.11555858 202.04574394 -0.12383652 C222.74188367 -0.19619266 239.35741006 2.49863312 254.60380554 17.54194641 C268.88250966 32.33060425 271.56332961 48.64967698 271.35380554 68.32319641 C271.34375718 69.96837326 271.3346346 71.61355605 271.32646179 73.25874329 C271.30459177 77.25954257 271.27016408 81.26005307 271.22880554 85.26069641 C272.6026239 85.22927551 272.6026239 85.22927551 274.00419617 85.19721985 C277.48591169 85.12800608 280.96687024 85.07840427 284.44902039 85.04096985 C285.94035052 85.02116636 287.43160648 84.99411575 288.9226532 84.9589386 C307.96025162 84.52188367 324.67119023 88.34351534 338.87724304 101.85054016 C349.8903464 113.13805639 356.55788609 126.15138359 356.49623108 142.13494873 C356.50076219 143.00508183 356.5052933 143.87521493 356.50996172 144.7717157 C356.52257876 147.67491691 356.52098711 150.57792988 356.51933289 153.4811554 C356.52531971 155.56770569 356.53212562 157.65425377 356.53968811 159.74079895 C356.55733706 165.39984389 356.56204296 171.05882833 356.56331968 176.71789813 C356.56474218 180.25463727 356.56901359 183.79136107 356.57431412 187.32809639 C356.59280896 199.66965333 356.60098519 212.01116709 356.59941101 224.35273743 C356.59820895 235.85271638 356.61932546 247.35250785 356.65089834 258.85243934 C356.67705285 268.73118899 356.68777869 278.60987735 356.68650019 288.48866135 C356.68599043 294.38653506 356.69168219 300.28424203 356.71285629 306.18208122 C356.73222525 311.72828606 356.73237214 317.2741648 356.71782303 322.82038116 C356.71573236 324.8536915 356.72045116 326.88702218 356.73254395 328.92029762 C356.7480054 331.70040091 356.73868239 334.47938095 356.72328186 337.25946045 C356.73356899 338.06015487 356.74385611 338.86084928 356.75445497 339.68580717 C356.66993667 346.61053937 354.40681128 351.65918956 349.97880554 356.94819641 C343.76281436 362.1752799 338.34915017 365.38801728 330.10380554 365.57319641 C329.02872742 365.61057922 327.95364929 365.64796204 326.84599304 365.68647766 C318.02508026 364.64816287 310.75975595 359.26403336 303.47880554 354.51069641 C301.52586179 353.25650788 299.57273775 352.00260005 297.61943054 350.74897766 C294.53755486 348.75962158 291.46399326 346.75894127 288.40068054 344.74116516 C270.56490307 333.25334297 252.02716775 331.94929681 231.46244812 332.00532532 C229.74721105 332.00256694 228.03197526 331.99888196 226.31674194 331.99435425 C222.6578072 331.98631728 218.99893328 331.98405456 215.33999062 331.98630142 C209.54243719 331.98916318 203.74500278 331.97467875 197.94747925 331.95732117 C181.4736455 331.91055895 164.999822 331.8863511 148.52592468 331.87983704 C139.40089477 331.87607686 130.27600189 331.85797971 121.15103072 331.82474267 C115.39918396 331.80464065 109.64769325 331.80210189 103.89582598 331.81302285 C100.30818669 331.81564551 96.7207514 331.80155216 93.13316536 331.78294182 C91.48252357 331.77765881 89.83184329 331.77904918 88.18121719 331.78797722 C70.90291572 331.8738297 55.32813318 327.76789723 42.42802429 315.65522766 C31.74725129 304.02589578 25.08522821 290.19644663 24.81474304 274.26069641 C24.79537689 273.53954651 24.77601074 272.81839661 24.75605774 272.07539368 C24.69695291 269.80394288 24.65015779 267.53243946 24.60380554 265.26069641 C24.56556188 263.70729062 24.52650658 262.15390459 24.48661804 260.60054016 C24.39130988 256.82075542 24.30702922 253.04087173 24.22880554 249.26069641 C15.52312457 254.50604371 6.84291293 259.76188552 -1.58369446 265.44819641 C-6.2790698 268.60677846 -10.98406136 271.74234244 -15.77119446 274.76069641 C-16.76119446 275.38975891 -17.75119446 276.01882141 -18.77119446 276.66694641 C-26.34548615 280.69078887 -34.04850432 281.48110925 -42.27119446 279.26069641 C-49.23917927 276.6492275 -54.68729878 271.88486387 -57.86713409 265.16817856 C-59.92505463 260.40160152 -60.33724168 256.36131112 -60.27912903 251.21754456 C-60.28536899 250.35331399 -60.29160895 249.48908342 -60.29803801 248.59866405 C-60.31388592 245.7269346 -60.30139593 242.8560637 -60.28877258 239.98432922 C-60.2941975 237.91544605 -60.30132224 235.84656674 -60.31001282 233.7776947 C-60.32820947 228.1741309 -60.32119241 222.57086254 -60.30849648 216.96729374 C-60.29834449 211.09037564 -60.30776876 205.21348224 -60.31404114 199.33656311 C-60.32131342 189.46422301 -60.31174317 179.59200269 -60.29267883 169.71968079 C-60.27093511 158.32880315 -60.2779451 146.93821221 -60.29998446 135.54734159 C-60.31817917 125.74913633 -60.32067616 115.95101703 -60.31022978 106.15280032 C-60.30401412 100.30903097 -60.30310553 94.465396 -60.31637573 88.62163544 C-60.32799203 83.12214227 -60.31980328 77.62301573 -60.29679871 72.12356186 C-60.29154135 70.1133243 -60.29297396 68.1030555 -60.30184937 66.09283066 C-60.37587462 47.61226766 -57.33787712 31.48838234 -44.16572571 17.45991516 C-31.51532735 5.84136007 -17.14855037 -0.07497608 0 0 Z " fill="#B9D6FF" transform="translate(107.77119445800781,68.73930358886719)"/>
<path d="M0 0 C4.4066827 -0.1007862 8.81271055 -0.17234423 13.22021484 -0.21972656 C14.71154498 -0.23953005 16.20280094 -0.26658066 17.69384766 -0.30175781 C36.73144608 -0.73881274 53.44238468 3.08281893 67.6484375 16.58984375 C78.66154085 27.87735998 85.32908055 40.89068718 85.26742554 56.87425232 C85.27195665 57.74438542 85.27648776 58.61451852 85.28115618 59.51101929 C85.29377322 62.4142205 85.29218157 65.31723347 85.29052734 68.22045898 C85.29651417 70.30700928 85.30332008 72.39355736 85.31088257 74.48010254 C85.32853152 80.13914748 85.33323742 85.79813192 85.33451414 91.45720172 C85.33593663 94.99394086 85.34020805 98.53066465 85.34550858 102.06739998 C85.36400342 114.40895692 85.37217965 126.75047068 85.37060547 139.09204102 C85.36940341 150.59201997 85.39051992 162.09181143 85.4220928 173.59174293 C85.44824731 183.47049258 85.45897315 193.34918094 85.45769465 203.22796494 C85.45718489 209.12583865 85.46287665 215.02354562 85.48405075 220.92138481 C85.50341971 226.46758965 85.5035666 232.01346839 85.48901749 237.55968475 C85.48692682 239.59299509 85.49164561 241.62632576 85.5037384 243.65960121 C85.51919986 246.43970449 85.50987685 249.21868453 85.49447632 251.99876404 C85.50476344 252.79945846 85.51505057 253.60015287 85.52564943 254.42511076 C85.44113113 261.34984296 83.17800573 266.39849315 78.75 271.6875 C72.53400882 276.91458349 67.12034463 280.12732087 58.875 280.3125 C57.79992187 280.34988281 56.72484375 280.38726562 55.6171875 280.42578125 C46.79627472 279.38746646 39.53095041 274.00333695 32.25 269.25 C30.29705625 267.99581147 28.34393221 266.74190363 26.390625 265.48828125 C23.30874932 263.49892516 20.23518771 261.49824486 17.171875 259.48046875 C-0.66390247 247.99264656 -19.20163779 246.6886004 -39.76635742 246.74462891 C-41.48159449 246.74187053 -43.19683028 246.73818555 -44.9120636 246.73365784 C-48.57099834 246.72562087 -52.22987226 246.72335815 -55.88881493 246.72560501 C-61.68636835 246.72846677 -67.48380276 246.71398234 -73.28132629 246.69662476 C-89.75516005 246.64986254 -106.22898354 246.62565469 -122.70288086 246.61914062 C-131.82791078 246.61538044 -140.95280365 246.5972833 -150.07777482 246.56404626 C-155.82962158 246.54394424 -161.5811123 246.54140548 -167.33297956 246.55232644 C-170.92061886 246.5549491 -174.50805414 246.54085575 -178.09564018 246.52224541 C-179.74628197 246.5169624 -181.39696225 246.51835277 -183.04758835 246.52728081 C-200.32588982 246.61313329 -215.90067236 242.50720082 -228.80078125 230.39453125 C-239.56125587 218.67841946 -246.424452 204.64026861 -246.1953125 188.5625 C-246.1924826 187.79695801 -246.18965271 187.03141602 -246.18673706 186.24267578 C-246.17565648 183.82828276 -246.15057601 181.41427846 -246.125 179 C-246.11495448 177.35026582 -246.1058314 175.70052576 -246.09765625 174.05078125 C-246.07575712 170.03370732 -246.04131325 166.01691927 -246 162 C-242.18547023 160.77248745 -238.39348093 160.85604817 -234.43128967 160.86196899 C-233.66525293 160.85914771 -232.89921619 160.85632643 -232.10996622 160.85341966 C-229.54082987 160.84508115 -226.97173666 160.84373602 -224.40258789 160.84228516 C-222.5610441 160.83761617 -220.71950145 160.83247246 -218.87796021 160.82688904 C-214.90944082 160.81560883 -210.94092895 160.80717406 -206.97239876 160.80076981 C-200.6885563 160.79008011 -194.40476752 160.76983056 -188.12095642 160.74765015 C-170.25082878 160.68576527 -152.38070378 160.63178685 -134.51049805 160.59863281 C-124.64284613 160.58024534 -114.7752837 160.5512546 -104.90769762 160.5106281 C-99.68986212 160.4896212 -94.47213911 160.47410987 -89.25425911 160.47182083 C-84.33843737 160.46966188 -79.42284951 160.45366617 -74.50709915 160.42743111 C-72.71134293 160.42028298 -70.91555823 160.41811513 -69.11979103 160.42153358 C-49.78421811 160.45243791 -32.60407986 157.33099484 -18.1796875 143.30859375 C-6.1936933 130.61375043 -0.54211287 115.16288374 -0.56762695 97.74536133 C-0.5574353 96.68061584 -0.54724365 95.61587036 -0.53674316 94.51885986 C-0.50682686 91.03986198 -0.49737991 87.56114038 -0.48828125 84.08203125 C-0.47141874 81.65393677 -0.45326641 79.22585094 -0.43388367 76.79777527 C-0.3865485 70.43735455 -0.35663255 64.07696891 -0.33044434 57.71643066 C-0.30055549 51.21387815 -0.25405383 44.71144626 -0.20898438 38.20898438 C-0.12313884 25.47272206 -0.05514531 12.73643038 0 0 Z " fill="#549BFF" transform="translate(379,154)"/>
</svg>
